<svg xmlns="http://www.w3.org/2000/svg" width="533" height="336.265" viewBox="0 0 533 336.265">
  <g id="Group_3" data-name="Group 3" transform="translate(-430 -139.735)">
    <text id="FLORESTANFT" transform="translate(430 417)" fill="#fff" font-size="68" font-family="Poppins-Bold, Poppins" font-weight="700"><tspan x="0" y="0">FLORESTA</tspan><tspan y="0" font-size="91" font-family="Merriweather-Black, Merriweather" font-weight="800">NFT</tspan></text>
    <text id="O_ACERVO_DIGITAL_DA_FLORESTA" data-name="O ACERVO DIGITAL DA FLORESTA" transform="translate(457 466)" fill="#fff" font-size="29" font-family="Poppins-Regular, Poppins" letter-spacing="0.03em"><tspan x="0" y="0">O ACERVO DIGITAL DA FLORESTA</tspan></text>
    <rect id="Rectangle_1" data-name="Rectangle 1" width="8" height="19" rx="4" transform="translate(854 335)" fill="#fff"/>
    <rect id="Rectangle_2" data-name="Rectangle 2" width="8" height="19" rx="4" transform="translate(871 335)" fill="#fff"/>
    <rect id="Rectangle_3" data-name="Rectangle 3" width="8" height="19" rx="4" transform="translate(852 412)" fill="#fff"/>
    <rect id="Rectangle_4" data-name="Rectangle 4" width="8" height="19" rx="4" transform="translate(869 412)" fill="#fff"/>
    <g id="Group_1" data-name="Group 1" transform="translate(532.467 141.149)">
      <g id="nft" transform="translate(0 0)">
        <circle id="Ellipse_1" data-name="Ellipse 1" cx="77.824" cy="77.824" r="77.824" transform="translate(52.44 110.061) rotate(-45)" fill="none" stroke="#49a654" stroke-miterlimit="10" stroke-width="2"/>
        <path id="Path_428" data-name="Path 428" d="M70.258,0A70.258,70.258,0,1,1,0,70.258,70.258,70.258,0,0,1,70.258,0Z" transform="translate(92.241 39.808)" fill="#77e985"/>
        <path id="Path_104" data-name="Path 104" d="M650.6,438.357h-.65v-1.073h.65a57.434,57.434,0,0,0,5.8-.286l.11,1.072C654.563,438.259,652.574,438.357,650.6,438.357Zm-2.827-.065a60.849,60.849,0,0,1-6.539-.65l.169-1.059a58.708,58.708,0,0,0,6.422.65Zm10.894-.481-.143-1.066a58.7,58.7,0,0,0,6.344-1.222l.26,1.04a58.737,58.737,0,0,1-6.487,1.248Zm-19.572-.566a61.05,61.05,0,0,1-6.376-1.618l.325-1.027a58.447,58.447,0,0,0,6.26,1.593ZM667.219,436l-.3-1.034a57.856,57.856,0,0,0,6.09-2.145l.416.994A60.042,60.042,0,0,1,667.219,436Zm-36.569-1.066a59.485,59.485,0,0,1-6.065-2.542l.468-.968a58.921,58.921,0,0,0,5.961,2.5Zm44.759-1.989-.449-.975a58.927,58.927,0,0,0,5.7-3.016l.559.923a59.689,59.689,0,0,1-5.811,3.068Zm-52.76-1.541a60.185,60.185,0,0,1-5.622-3.413l.6-.891a59.8,59.8,0,0,0,5.525,3.354Zm60.4-2.685-.585-.9a60.07,60.07,0,0,0,5.2-3.822l.689.832a59.659,59.659,0,0,1-5.3,3.887Zm-67.8-1.989a59.974,59.974,0,0,1-5.064-4.2l.735-.786a59.308,59.308,0,0,0,4.972,4.121ZM690,423.419l-.709-.806a59.3,59.3,0,0,0,4.589-4.55l.8.721A59.347,59.347,0,0,1,690,423.419Zm-81.38-2.392a59.11,59.11,0,0,1-4.394-4.888l.832-.65a59.326,59.326,0,0,0,4.323,4.8Zm87.49-3.867-.825-.7a57.523,57.523,0,0,0,3.9-5.161l.9.6A60.961,60.961,0,0,1,696.111,417.16Zm-93.216-2.737a59.226,59.226,0,0,1-3.634-5.479l.923-.54a57.955,57.955,0,0,0,3.575,5.375Zm98.338-4.349-.91-.565a59.1,59.1,0,0,0,3.081-5.681l.975.461a59.932,59.932,0,0,1-3.146,5.785Zm-103.044-3.016a61.184,61.184,0,0,1-2.8-5.947l1-.4a57.514,57.514,0,0,0,2.743,5.85Zm107.081-4.719-.988-.422a57.934,57.934,0,0,0,2.21-6.071l1.034.312A58.043,58.043,0,0,1,705.269,402.34Zm-110.643-3.25a59.47,59.47,0,0,1-1.885-6.3l1.047-.247a58.261,58.261,0,0,0,1.853,6.182Zm113.49-5.044-1.04-.273a59.914,59.914,0,0,0,1.3-6.325l1.066.156a60.439,60.439,0,0,1-1.326,6.435ZM592.273,390.64a60.755,60.755,0,0,1-.936-6.5l1.073-.1a60.085,60.085,0,0,0,.916,6.4Zm117.429-5.2-1.066-.117a59.535,59.535,0,0,0,.039-12.545l1.066-.117A59.475,59.475,0,0,1,709.7,385.44Zm-118.515-3.452c-.052-1.027-.078-2.073-.078-3.113,0-1.151,0-2.32.1-3.464l1.073.058c-.065,1.131-.1,2.275-.1,3.406,0,1.021,0,2.047.078,3.055Zm1.255-8.638-1.073-.1a60.888,60.888,0,0,1,.975-6.5l1.053.221A58.422,58.422,0,0,0,592.443,373.35Zm115.973-2.691a57.96,57.96,0,0,0-1.254-6.331l1.04-.266a57.97,57.97,0,0,1,1.3,6.448ZM593.873,364.88l-1.047-.253a58.608,58.608,0,0,1,1.95-6.292l1.008.37A58.7,58.7,0,0,0,593.873,364.88Zm112.723-2.6a58.513,58.513,0,0,0-2.177-6.084l.994-.416a60,60,0,0,1,2.21,6.194Zm-110.058-5.558-.995-.409a59.742,59.742,0,0,1,2.828-5.941l.949.52a57.65,57.65,0,0,0-2.782,5.824ZM703.56,354.24a59.74,59.74,0,0,0-3.049-5.687l.917-.559a57.747,57.747,0,0,1,3.1,5.8Zm-103.187-5.2-.923-.552a60.223,60.223,0,0,1,3.672-5.46l.858.65A59.434,59.434,0,0,0,600.373,349.04Zm99-2.275a59.825,59.825,0,0,0-3.848-5.2l.825-.682a58.648,58.648,0,0,1,3.9,5.278ZM605.3,342l-.832-.65a60.327,60.327,0,0,1,4.426-4.862l.754.767a59.327,59.327,0,0,0-4.349,4.739Zm88.836-2.06a59.342,59.342,0,0,0-4.55-4.55l.715-.8a59.245,59.245,0,0,1,4.648,4.654Zm-82.947-4.186-.721-.793a58.929,58.929,0,0,1,5.089-4.16l.65.864A60.141,60.141,0,0,0,611.188,335.754Zm76.765-1.761a59.858,59.858,0,0,0-5.2-3.854l.6-.9a60.661,60.661,0,0,1,5.278,3.9Zm-70.024-3.549-.6-.89a59.592,59.592,0,0,1,5.642-3.373l.5.949a59.763,59.763,0,0,0-5.538,3.315Zm63.05-1.449a59.03,59.03,0,0,0-5.688-3.055l.455-.975a58.536,58.536,0,0,1,5.8,3.113Zm-55.595-2.814-.462-.969A57.455,57.455,0,0,1,631,322.7l.338.988a58.278,58.278,0,0,0-5.96,2.49Zm47.957-1.111a58.471,58.471,0,0,0-6.084-2.184l.305-1.027a60.093,60.093,0,0,1,6.195,2.223Zm-39.969-2.028-.312-1.027a59.453,59.453,0,0,1,6.383-1.586l.2,1.059a57.392,57.392,0,0,0-6.272,1.554Zm31.85-.734a58.426,58.426,0,0,0-6.337-1.261l.149-1.066a59.034,59.034,0,0,1,6.454,1.3Zm-23.484-1.164-.163-1.066a59.308,59.308,0,0,1,6.546-.65l.046,1.073A57.223,57.223,0,0,0,641.738,321.142Zm15.009-.344a59.146,59.146,0,0,0-6.169-.325h-.286V319.4h.286a61.273,61.273,0,0,1,6.279.325Z" transform="translate(-488.085 -268.815)" fill="#310000"/>
        <path id="Path_105" data-name="Path 105" d="M644.779,302.82a70.258,70.258,0,1,0,70.258,70.256,70.258,70.258,0,0,0-70.258-70.256Zm0,136.253a66,66,0,1,1,66-66A66,66,0,0,1,644.779,439.073Z" transform="translate(-482.279 -263.012)" fill="#49a654"/>
        <path id="Path_106" data-name="Path 106" d="M644.3,322.364l.877-.377-1.3-3-.878.377Z" transform="translate(-506.247 -268.671)" fill="#310000"/>
        <path id="Path_107" data-name="Path 107" d="M621.476,336.244l.748-.6-2.106-2.509c-.247.2-.5.4-.747.6Z" transform="translate(-497.976 -273.62)" fill="#310000"/>
        <path id="Path_108" data-name="Path 108" d="M648.613,320.488l1.248-.455-.9-3.152c-.566.195-1.125.4-1.677.611Z" transform="translate(-507.745 -267.933)" fill="#fff"/>
        <path id="Path_109" data-name="Path 109" d="M639.51,324.6l.858-.429-1.3-3-.858.429Z" transform="translate(-504.57 -269.434)" fill="#fff"/>
        <path id="Path_110" data-name="Path 110" d="M651.893,319.471l.91-.3L651.9,316l-.91.3Z" transform="translate(-509.043 -267.625)" fill="#fff"/>
        <path id="Path_111" data-name="Path 111" d="M630.162,329.916l.8-.513-1.735-2.782-.806.52Z" transform="translate(-501.144 -271.342)" fill="#fff"/>
        <path id="Path_112" data-name="Path 112" d="M627.946,331.391l.793-.539L627,328.07l-.793.54Z" transform="translate(-500.37 -271.849)" fill="#fff"/>
        <path id="Path_113" data-name="Path 113" d="M625.123,333.142l1.066-.78-1.736-2.782q-.728.52-1.443,1.053Z" transform="translate(-499.25 -272.378)" fill="#fff"/>
        <path id="Path_114" data-name="Path 114" d="M636.433,325.977l1.17-.65-1.3-3c-.533.273-1.053.552-1.573.839Z" transform="translate(-503.352 -269.84)" fill="#fff"/>
        <path id="Path_115" data-name="Path 115" d="M654.423,318.676l.923-.273-.9-3.153-.923.273Z" transform="translate(-509.928 -267.362)" fill="#fff"/>
        <path id="Path_116" data-name="Path 116" d="M632.412,328.5l.819-.488L631.5,325.23l-.826.494Z" transform="translate(-501.931 -270.855)" fill="#fff"/>
        <path id="Path_117" data-name="Path 117" d="M692.11,315.1l.956.111.227-3.25-.955-.1Z" transform="translate(-523.435 -266.176)" fill="#fff"/>
        <path id="Path_118" data-name="Path 118" d="M586.732,400.992c.039-.442.085-.884.137-1.3l-3.25-.572c-.071.591-.13,1.183-.188,1.774Z" transform="translate(-485.397 -296.717)" fill="#fff"/>
        <path id="Path_119" data-name="Path 119" d="M678.24,314.7l.956-.033V311.38l-.956.039Z" transform="translate(-518.581 -266.008)" fill="#fff"/>
        <path id="Path_120" data-name="Path 120" d="M683.56,314.64h.052l.228-3.25h-.28Z" transform="translate(-520.443 -266.011)" fill="#fff"/>
        <path id="Path_121" data-name="Path 121" d="M656.983,317.949l.923-.253-.9-3.146-.923.247Z" transform="translate(-510.825 -267.117)" fill="#fff"/>
        <path id="Path_122" data-name="Path 122" d="M689.46,314.88a8.917,8.917,0,0,1,.949.078l.234-3.25q-.481-.052-.956-.078Z" transform="translate(-522.508 -266.095)" fill="#fff"/>
        <path id="Path_123" data-name="Path 123" d="M674.741,314.864c.435-.033.877-.065,1.3-.085V311.49c-.592.033-1.19.078-1.781.123Z" transform="translate(-517.188 -266.046)" fill="#fff"/>
        <path id="Path_124" data-name="Path 124" d="M664.892,316.159l.943-.169-.462-3.25-.943.162Z" transform="translate(-513.747 -266.484)" fill="#fff"/>
        <path id="Path_125" data-name="Path 125" d="M661.514,316.753c.429-.091.858-.188,1.3-.273l-.455-3.25c-.585.117-1.17.241-1.749.371Z" transform="translate(-512.41 -266.655)" fill="#fff"/>
        <path id="Path_126" data-name="Path 126" d="M670.155,315.351l.949-.111-.455-3.25-.949.111Z" transform="translate(-515.592 -266.221)" fill="#fff"/>
        <path id="Path_127" data-name="Path 127" d="M667.515,315.723l.949-.143-.455-3.25-.949.137Z" transform="translate(-514.668 -266.34)" fill="#fff"/>
        <path id="Path_128" data-name="Path 128" d="M641.893,323.443l.871-.4-1.333-2.99-.871.4Z" transform="translate(-505.393 -269.042)" fill="#fff"/>
        <path id="Path_129" data-name="Path 129" d="M590.52,382.294c.091-.306.188-.611.286-.91l-3.114-1.014-.293.91Z" transform="translate(-486.787 -290.154)" fill="#fff"/>
        <path id="Path_130" data-name="Path 130" d="M592.927,375c.156-.41.325-.819.5-1.229l-2.958-1.443q-.338.832-.65,1.657Z" transform="translate(-487.634 -287.34)" fill="#fff"/>
        <path id="Path_131" data-name="Path 131" d="M591.32,379.758c.1-.3.208-.6.318-.9l-3.12-1.014c-.1.305-.215.6-.318.9Z" transform="translate(-487.067 -289.269)" fill="#fff"/>
        <path id="Path_132" data-name="Path 132" d="M594.245,372.2c.13-.292.253-.585.39-.877l-2.951-1.436-.384.878Z" transform="translate(-488.152 -286.486)" fill="#fff"/>
        <path id="Path_133" data-name="Path 133" d="M596.5,367.388l.435-.851L594,365.1l-.436.851Z" transform="translate(-488.943 -284.81)" fill="#fff"/>
        <path id="Path_134" data-name="Path 134" d="M595.334,369.768l.409-.864-2.964-1.424c-.143.286-.273.579-.409.864Z" transform="translate(-488.526 -285.643)" fill="#fff"/>
        <path id="Path_135" data-name="Path 135" d="M587.486,395.365l.156-.943-3.25-.572c-.059.318-.111.65-.162.949Z" transform="translate(-485.677 -294.872)" fill="#fff"/>
        <path id="Path_136" data-name="Path 136" d="M589.78,384.847c.084-.306.169-.618.26-.923l-3.12-1.014c-.091.312-.175.617-.26.923Z" transform="translate(-486.528 -291.043)" fill="#fff"/>
        <path id="Path_137" data-name="Path 137" d="M619.446,337.956l.728-.617-2.106-2.509-.728.617Z" transform="translate(-497.266 -274.215)" fill="#fff"/>
        <path id="Path_138" data-name="Path 138" d="M588.911,387.754c.1-.436.208-.864.318-1.3l-3.12-1.014q-.228.865-.429,1.736Z" transform="translate(-486.185 -291.929)" fill="#fff"/>
        <path id="Path_139" data-name="Path 139" d="M587.944,392.745c.059-.318.117-.65.182-.942l-3.25-.572-.175.943Z" transform="translate(-485.842 -293.955)" fill="#fff"/>
        <path id="Path_140" data-name="Path 140" d="M587.11,398c.039-.319.091-.65.137-.949L584,396.49l-.137.943Z" transform="translate(-485.548 -295.796)" fill="#fff"/>
        <path id="Path_141" data-name="Path 141" d="M611.688,345.443c.221-.234.435-.468.65-.7l-2.437-2.2-.65.7Z" transform="translate(-494.434 -276.917)" fill="#fff"/>
        <path id="Path_142" data-name="Path 142" d="M609.961,347.435l.65-.715-2.431-2.19c-.215.234-.429.474-.65.715Z" transform="translate(-493.832 -277.61)" fill="#fff"/>
        <path id="Path_143" data-name="Path 143" d="M608.22,349.422l.611-.734-2.431-2.2c-.208.247-.416.488-.65.734Z" transform="translate(-493.209 -278.296)" fill="#fff"/>
        <path id="Path_144" data-name="Path 144" d="M617.463,339.719l.708-.65-2.106-2.509-.715.65Z" transform="translate(-496.569 -274.821)" fill="#fff"/>
        <path id="Path_145" data-name="Path 145" d="M598.681,362.951c.215-.39.442-.767.65-1.151l-2.7-1.8c-.305.507-.6,1.027-.9,1.54Z" transform="translate(-489.702 -283.025)" fill="#fff"/>
        <path id="Path_146" data-name="Path 146" d="M614.937,341.8c.312-.306.65-.617.949-.916l-2.106-2.516c-.435.41-.858.819-1.3,1.235Z" transform="translate(-495.565 -275.454)" fill="#fff"/>
        <path id="Path_147" data-name="Path 147" d="M601.881,358.076l.526-.793-2.691-1.833-.527.8Z" transform="translate(-490.913 -281.432)" fill="#fff"/>
        <path id="Path_148" data-name="Path 148" d="M600.444,360.326c.163-.273.331-.546.507-.813l-2.717-1.833c-.175.267-.344.54-.513.813Z" transform="translate(-490.399 -282.213)" fill="#fff"/>
        <path id="Path_149" data-name="Path 149" d="M606.077,351.8c.266-.351.539-.7.819-1.04l-2.438-2.2c-.377.461-.741.93-1.1,1.4Z" transform="translate(-492.372 -279.021)" fill="#fff"/>
        <path id="Path_150" data-name="Path 150" d="M603.357,355.873c.182-.26.358-.527.546-.78l-2.717-1.833c-.188.26-.364.52-.546.78Z" transform="translate(-491.421 -280.666)" fill="#fff"/>
        <path id="Path_151" data-name="Path 151" d="M680.9,314.65h.955V311.4H680.9Z" transform="translate(-519.512 -266.015)" fill="#fff"/>
        <path id="Path_152" data-name="Path 152" d="M770.35,375.059l.351.891,3.035-1.229c-.11-.292-.227-.591-.351-.89Z" transform="translate(-550.819 -287.865)" fill="#fff"/>
        <path id="Path_153" data-name="Path 153" d="M767.11,367.675q.3.585.585,1.189l3.042-1.229c-.254-.539-.513-1.073-.78-1.605Z" transform="translate(-549.685 -285.135)" fill="#fff"/>
        <path id="Path_154" data-name="Path 154" d="M769.32,372.6c.13.292.253.585.377.884l3.035-1.229c-.123-.293-.247-.585-.377-.878Z" transform="translate(-550.459 -287.008)" fill="#fff"/>
        <path id="Path_155" data-name="Path 155" d="M771.31,377.549c.11.3.221.6.325.9l3.042-1.228-.325-.9Z" transform="translate(-551.155 -288.737)" fill="#fff"/>
        <path id="Path_156" data-name="Path 156" d="M772.2,380.059c.143.422.279.839.416,1.261l3.185-.793c-.182-.566-.364-1.138-.559-1.7Z" transform="translate(-551.467 -289.615)" fill="#fff"/>
        <path id="Path_157" data-name="Path 157" d="M758.83,353.965l.565.773,2.6-2.015c-.182-.26-.377-.52-.566-.773Z" transform="translate(-546.787 -280.207)" fill="#fff"/>
        <path id="Path_158" data-name="Path 158" d="M694.76,315.39l1.3.189.682-3.211c-.591-.091-1.183-.176-1.775-.247Z" transform="translate(-524.363 -266.267)" fill="#fff"/>
        <path id="Path_159" data-name="Path 159" d="M773.73,385.263c.085.312.169.618.247.93l3.179-.793c-.078-.312-.163-.617-.247-.93Z" transform="translate(-552.002 -291.589)" fill="#fff"/>
        <path id="Path_160" data-name="Path 160" d="M764.59,362.978l.468.839,2.834-1.638c-.156-.28-.305-.559-.468-.839Z" transform="translate(-548.803 -283.494)" fill="#fff"/>
        <path id="Path_161" data-name="Path 161" d="M763.22,360.688c.169.273.332.546.494.826l2.834-1.638-.487-.826Z" transform="translate(-548.324 -282.692)" fill="#fff"/>
        <path id="Path_162" data-name="Path 162" d="M765.88,365.308l.449.845,2.841-1.638-.449-.845Z" transform="translate(-549.255 -284.309)" fill="#fff"/>
        <path id="Path_163" data-name="Path 163" d="M776.35,398.435c.039.319.078.65.111.949l3.25-.344c-.039-.312-.071-.65-.117-.949Z" transform="translate(-552.919 -296.356)" fill="#fff"/>
        <path id="Path_164" data-name="Path 164" d="M688.242,314.8l.228-3.25h-.279v3.289Z" transform="translate(-522.063 -266.067)" fill="#fff"/>
        <path id="Path_165" data-name="Path 165" d="M586.34,410.7v-.253l-3.25-.111v.956l3.25.117C586.346,411.179,586.34,410.945,586.34,410.7Z" transform="translate(-485.278 -300.644)" fill="#fff"/>
        <path id="Path_166" data-name="Path 166" d="M780.15,403.39l-3.25.345.059.955,3.25-.344A9.393,9.393,0,0,0,780.15,403.39Z" transform="translate(-553.112 -298.211)" fill="#fff"/>
        <path id="Path_167" data-name="Path 167" d="M774.4,387.843c.078.312.156.65.227.93l3.179-.793c-.072-.312-.15-.65-.228-.929Z" transform="translate(-552.237 -292.492)" fill="#fff"/>
        <path id="Path_168" data-name="Path 168" d="M676.147,505.21l-.227,3.25.728.046v-3.282Z" transform="translate(-517.768 -333.848)" fill="#fff"/>
        <path id="Path_169" data-name="Path 169" d="M614.045,477.16l-2.275,2.359.65.65,2.275-2.359Z" transform="translate(-495.316 -324.031)" fill="#fff"/>
        <path id="Path_170" data-name="Path 170" d="M775.53,393.046c.078.435.156.871.227,1.3l3.25-.344c-.091-.592-.195-1.177-.305-1.761Z" transform="translate(-552.632 -294.309)" fill="#fff"/>
        <path id="Path_171" data-name="Path 171" d="M775,390.443c.065.312.136.65.195.936l3.185-.793c-.059-.312-.13-.65-.2-.936Z" transform="translate(-552.447 -293.402)" fill="#fff"/>
        <path id="Path_172" data-name="Path 172" d="M776.66,401.085c.032.312.058.65.084.949l3.25-.338a9.166,9.166,0,0,0-.085-.956Z" transform="translate(-553.028 -297.284)" fill="#fff"/>
        <path id="Path_173" data-name="Path 173" d="M757.22,351.842c.2.247.39.5.585.754l2.6-2.015q-.286-.377-.585-.76Z" transform="translate(-546.224 -279.462)" fill="#fff"/>
        <path id="Path_174" data-name="Path 174" d="M760.38,356.135c.254.364.5.728.741,1.1l2.841-1.638c-.325-.5-.65-.988-.995-1.476Z" transform="translate(-547.33 -280.967)" fill="#fff"/>
        <path id="Path_175" data-name="Path 175" d="M717.67,321.461l.884.357,1.125-3.081-.891-.357Z" transform="translate(-532.381 -268.458)" fill="#fff"/>
        <path id="Path_176" data-name="Path 176" d="M715.18,320.5l.9.338,1.118-3.081-.9-.338Z" transform="translate(-531.51 -268.122)" fill="#fff"/>
        <path id="Path_177" data-name="Path 177" d="M727.2,326.013c.286.149.566.306.839.462l1.54-2.893-.839-.462Z" transform="translate(-535.717 -270.117)" fill="#fff"/>
        <path id="Path_178" data-name="Path 178" d="M712.67,319.611l.9.318,1.118-3.081-.9-.318Z" transform="translate(-530.631 -267.81)" fill="#fff"/>
        <path id="Path_179" data-name="Path 179" d="M720.13,322.487c.4.176.806.351,1.209.54l1.54-2.9c-.54-.247-1.079-.494-1.632-.728Z" transform="translate(-533.242 -268.815)" fill="#fff"/>
        <path id="Path_180" data-name="Path 180" d="M724.84,324.789l.852.436,1.541-2.893-.858-.442Z" transform="translate(-534.891 -269.686)" fill="#fff"/>
        <path id="Path_181" data-name="Path 181" d="M702.51,316.765l.936.2.65-3.2-.936-.2Z" transform="translate(-527.075 -266.771)" fill="#fff"/>
        <path id="Path_182" data-name="Path 182" d="M699.9,316.25l.943.182.65-3.2-.877-.228Z" transform="translate(-526.162 -266.575)" fill="#fff"/>
        <path id="Path_183" data-name="Path 183" d="M707.69,318.031l1.3.364,1.125-3.081c-.565-.176-1.138-.338-1.716-.494Z" transform="translate(-528.888 -267.212)" fill="#fff"/>
        <path id="Path_184" data-name="Path 184" d="M705.11,317.361c.312.072.617.149.93.234l.682-3.211-.93-.234Z" transform="translate(-527.985 -266.977)" fill="#fff"/>
        <path id="Path_185" data-name="Path 185" d="M742.57,336.442l1.014.858,2.275-2.366c-.448-.383-.9-.767-1.365-1.144Z" transform="translate(-541.096 -273.851)" fill="#fff"/>
        <path id="Path_186" data-name="Path 186" d="M746.49,340.01l.7.65,2.282-2.359-.7-.65Z" transform="translate(-542.468 -275.202)" fill="#fff"/>
        <path id="Path_187" data-name="Path 187" d="M755.56,349.755l.6.747,2.6-2.015-.6-.747Z" transform="translate(-545.643 -278.734)" fill="#fff"/>
        <path id="Path_188" data-name="Path 188" d="M748.42,341.843l.689.65,2.275-2.353-.689-.65Z" transform="translate(-543.144 -275.846)" fill="#fff"/>
        <path id="Path_189" data-name="Path 189" d="M750.31,343.729l.65.689,2.281-2.359c-.221-.234-.448-.462-.65-.689Z" transform="translate(-543.805 -276.504)" fill="#fff"/>
        <path id="Path_190" data-name="Path 190" d="M752.14,345.674c.3.325.6.65.891.988l2.6-2.021q-.585-.65-1.19-1.3Z" transform="translate(-544.446 -277.194)" fill="#fff"/>
        <path id="Path_191" data-name="Path 191" d="M736.18,331.632l.786.546,1.95-2.645-.787-.553Z" transform="translate(-538.86 -272.168)" fill="#fff"/>
        <path id="Path_192" data-name="Path 192" d="M731.83,328.666c.377.228.754.461,1.125.7l1.95-2.652c-.5-.325-1-.65-1.508-.956Z" transform="translate(-537.337 -271.041)" fill="#fff"/>
        <path id="Path_193" data-name="Path 193" d="M729.53,327.3l.826.488L731.9,324.9l-.826-.487Z" transform="translate(-536.532 -270.568)" fill="#fff"/>
        <path id="Path_194" data-name="Path 194" d="M738.35,333.182l.774.566,1.95-2.646-.767-.572Z" transform="translate(-539.619 -272.71)" fill="#fff"/>
        <path id="Path_195" data-name="Path 195" d="M740.48,334.782l.754.591,1.95-2.652-.748-.591Z" transform="translate(-540.365 -273.27)" fill="#fff"/>
        <path id="Path_196" data-name="Path 196" d="M777.049,414.45a7.7,7.7,0,0,1-.039.955l3.25.111a7.764,7.764,0,0,1,.039-.955Z" transform="translate(-553.15 -302.082)" fill="#fff"/>
        <path id="Path_197" data-name="Path 197" d="M732.043,491.17l-.813.5,1.736,2.782.819-.507Z" transform="translate(-537.127 -328.934)" fill="#fff"/>
        <path id="Path_198" data-name="Path 198" d="M729.756,492.55l-.826.474,1.735,2.782.832-.481Z" transform="translate(-536.322 -329.417)" fill="#fff"/>
        <path id="Path_199" data-name="Path 199" d="M727.257,493.87c-.39.208-.78.416-1.176.617l1.339,3c.526-.273,1.053-.553,1.573-.845Z" transform="translate(-535.325 -329.879)" fill="#fff"/>
        <path id="Path_200" data-name="Path 200" d="M722.791,496.24l-.871.4,1.339,3,.865-.409Z" transform="translate(-533.868 -330.709)" fill="#fff"/>
        <path id="Path_201" data-name="Path 201" d="M734.3,489.73l-.8.527,1.735,2.775c.267-.169.533-.351.8-.527Z" transform="translate(-537.922 -328.43)" fill="#fff"/>
        <path id="Path_202" data-name="Path 202" d="M748.486,478.15c-.318.312-.65.65-.956.923l2.112,2.509c.429-.4.858-.819,1.3-1.235Z" transform="translate(-542.832 -324.377)" fill="#fff"/>
        <path id="Path_203" data-name="Path 203" d="M750.5,476.25c-.221.234-.442.461-.65.689l2.438,2.191.65-.683Z" transform="translate(-543.644 -323.712)" fill="#fff"/>
        <path id="Path_204" data-name="Path 204" d="M738.423,486.74c-.358.266-.709.526-1.073.78l1.742,2.782c.481-.338.962-.689,1.437-1.047Z" transform="translate(-539.269 -327.384)" fill="#fff"/>
        <path id="Path_205" data-name="Path 205" d="M720.368,497.35l-.878.384,1.3,3,.877-.39Z" transform="translate(-533.018 -331.097)" fill="#fff"/>
        <path id="Path_206" data-name="Path 206" d="M742.761,483.44l-.741.6,2.106,2.509.741-.6Z" transform="translate(-540.904 -326.229)" fill="#fff"/>
        <path id="Path_207" data-name="Path 207" d="M740.684,485.12l-.754.585,2.106,2.509c.254-.195.507-.384.754-.585Z" transform="translate(-540.172 -326.817)" fill="#fff"/>
        <path id="Path_208" data-name="Path 208" d="M744.792,481.7l-.721.65,2.106,2.509.721-.65Z" transform="translate(-541.621 -325.62)" fill="#fff"/>
        <path id="Path_209" data-name="Path 209" d="M717.9,498.39l-.9.4,1.333,3,.891-.364Z" transform="translate(-532.147 -331.462)" fill="#fff"/>
        <path id="Path_210" data-name="Path 210" d="M702.57,503.15l-1.3.28.455,3.25c.585-.117,1.17-.24,1.748-.37Z" transform="translate(-526.641 -333.127)" fill="#fff"/>
        <path id="Path_211" data-name="Path 211" d="M586.44,406.083a5.815,5.815,0,0,1,.052-.955l-3.25-.117c0,.319-.039.65-.052.956Z" transform="translate(-485.313 -298.778)" fill="#fff"/>
        <path id="Path_212" data-name="Path 212" d="M692.375,504.87l-.955.1.455,3.25.955-.1Z" transform="translate(-523.194 -333.729)" fill="#fff"/>
        <path id="Path_213" data-name="Path 213" d="M689.53,505.12c-.442.039-.884.065-1.3.091v3.282c.6-.033,1.19-.072,1.781-.124Z" transform="translate(-522.077 -333.817)" fill="#fff"/>
        <path id="Path_214" data-name="Path 214" d="M695.019,504.54l-.949.123.455,3.25.949-.123Z" transform="translate(-524.121 -333.614)" fill="#fff"/>
        <path id="Path_215" data-name="Path 215" d="M705.366,502.53l-.936.227.9,3.153c.312-.071.65-.143.936-.228Z" transform="translate(-527.747 -332.911)" fill="#fff"/>
        <path id="Path_216" data-name="Path 216" d="M710.507,501.08l-.916.273.9,3.152.916-.273Z" transform="translate(-529.553 -332.403)" fill="#fff"/>
        <path id="Path_217" data-name="Path 217" d="M715.238,499.37c-.416.156-.832.312-1.248.455l.9,3.159c.559-.2,1.118-.4,1.677-.618Z" transform="translate(-531.093 -331.804)" fill="#fff"/>
        <path id="Path_218" data-name="Path 218" d="M684.482,505.4h-.962v3.25h.962Z" transform="translate(-520.429 -333.915)" fill="#fff"/>
        <path id="Path_219" data-name="Path 219" d="M707.943,501.84c-.306.091-.65.169-.923.254l.9,3.152c.305-.084.65-.162.923-.253Z" transform="translate(-528.654 -332.669)" fill="#fff"/>
        <path id="Path_220" data-name="Path 220" d="M774.408,432.78c-.1.429-.208.858-.318,1.3l3.12,1.014c.156-.572.3-1.151.435-1.729Z" transform="translate(-552.128 -308.498)" fill="#fff"/>
        <path id="Path_221" data-name="Path 221" d="M775.058,430.18c-.065.312-.136.65-.208.936l3.25.565c.071-.312.143-.65.208-.936Z" transform="translate(-552.394 -307.588)" fill="#fff"/>
        <path id="Path_222" data-name="Path 222" d="M772.276,440.35c-.1.3-.2.6-.306.9l3.12,1.014c.1-.3.2-.6.306-.91Z" transform="translate(-551.386 -311.147)" fill="#fff"/>
        <path id="Path_223" data-name="Path 223" d="M773.089,437.8c-.091.305-.182.617-.279.917l3.12,1.014.273-.916Z" transform="translate(-551.68 -310.255)" fill="#fff"/>
        <path id="Path_224" data-name="Path 224" d="M775.575,427.56c-.052.312-.117.65-.175.942l3.25.566c.065-.312.124-.65.182-.936Z" transform="translate(-552.587 -306.671)" fill="#fff"/>
        <path id="Path_225" data-name="Path 225" d="M776.9,417.11c0,.319-.045.65-.071.956l3.25.111c0-.312.039-.65.065-.956Z" transform="translate(-553.087 -303.013)" fill="#fff"/>
        <path id="Path_226" data-name="Path 226" d="M776.02,424.93c-.045.319-.1.65-.15.943l3.25.572c.059-.312.11-.65.156-.942Z" transform="translate(-552.751 -305.75)" fill="#fff"/>
        <path id="Path_227" data-name="Path 227" d="M777,406.4c0,.442.039.884.052,1.333l3.25.111c0-.6,0-1.189-.059-1.781Z" transform="translate(-553.147 -299.146)" fill="#fff"/>
        <path id="Path_228" data-name="Path 228" d="M777.13,411.78v.962l3.25.111V411.9Z" transform="translate(-553.192 -301.148)" fill="#fff"/>
        <path id="Path_229" data-name="Path 229" d="M776.653,419.77c-.045.442-.091.878-.143,1.3l3.25.572c.065-.591.13-1.183.182-1.781Z" transform="translate(-552.975 -303.944)" fill="#fff"/>
        <path id="Path_230" data-name="Path 230" d="M771.4,442.87c-.111.3-.221.6-.338.9l3.127,1.014c.11-.3.221-.6.325-.9Z" transform="translate(-551.068 -312.029)" fill="#fff"/>
        <path id="Path_231" data-name="Path 231" d="M768.383,450.15c-.13.293-.266.578-.4.864l2.944,1.437c.136-.286.273-.572.4-.865Z" transform="translate(-549.99 -314.577)" fill="#fff"/>
        <path id="Path_232" data-name="Path 232" d="M758.986,466.13l-.566.774,2.717,1.833.565-.773Z" transform="translate(-546.644 -320.17)" fill="#fff"/>
        <path id="Path_233" data-name="Path 233" d="M760.526,464l-.546.787,2.717,1.826.546-.787Z" transform="translate(-547.19 -319.425)" fill="#fff"/>
        <path id="Path_234" data-name="Path 234" d="M762.006,461.72l-.526.8,2.717,1.833c.175-.266.351-.526.526-.8Z" transform="translate(-547.715 -318.627)" fill="#fff"/>
        <path id="Path_235" data-name="Path 235" d="M757.253,468.27c-.266.351-.539.7-.812,1.04l2.438,2.2c.371-.461.741-.93,1.1-1.4Z" transform="translate(-545.951 -320.919)" fill="#fff"/>
        <path id="Path_236" data-name="Path 236" d="M754.08,472.3c-.208.247-.423.487-.65.721l2.431,2.2.65-.721Z" transform="translate(-544.897 -322.33)" fill="#fff"/>
        <path id="Path_237" data-name="Path 237" d="M770.371,445.36c-.163.416-.332.826-.5,1.235l2.951,1.437c.234-.546.455-1.1.65-1.658Z" transform="translate(-550.651 -312.901)" fill="#fff"/>
        <path id="Path_238" data-name="Path 238" d="M767.229,452.55l-.429.858,2.945,1.436.429-.858Z" transform="translate(-549.577 -315.417)" fill="#fff"/>
        <path id="Path_239" data-name="Path 239" d="M752.32,474.31l-.65.7,2.431,2.19.65-.7Z" transform="translate(-544.281 -323.033)" fill="#fff"/>
        <path id="Path_240" data-name="Path 240" d="M764.65,457.27c-.221.384-.442.767-.65,1.144l2.723,1.839c.306-.514.6-1.027.891-1.547Z" transform="translate(-548.597 -317.069)" fill="#fff"/>
        <path id="Path_241" data-name="Path 241" d="M766,454.93l-.448.845,2.951,1.437.448-.845Z" transform="translate(-549.139 -316.25)" fill="#fff"/>
        <path id="Path_242" data-name="Path 242" d="M697.653,504.14c-.312.052-.65.111-.943.156l.455,3.25.949-.15Z" transform="translate(-525.045 -333.474)" fill="#fff"/>
        <path id="Path_243" data-name="Path 243" d="M596.167,452.61l-.585-1.19-3.042,1.229c.26.539.52,1.072.787,1.6Z" transform="translate(-488.585 -315.022)" fill="#fff"/>
        <path id="Path_244" data-name="Path 244" d="M598.529,456.882c-.162-.273-.318-.553-.468-.832l-2.84,1.638.468.832Z" transform="translate(-489.524 -316.642)" fill="#fff"/>
        <path id="Path_245" data-name="Path 245" d="M594.872,449.861c-.136-.286-.266-.579-.4-.871l-3.035,1.229c.13.292.253.585.39.877Z" transform="translate(-488.201 -314.171)" fill="#fff"/>
        <path id="Path_246" data-name="Path 246" d="M593.806,447.424c-.13-.293-.247-.591-.37-.884l-3.036,1.229c.117.292.241.591.364.884Z" transform="translate(-487.837 -313.314)" fill="#fff"/>
        <path id="Path_247" data-name="Path 247" d="M599.858,459.189l-.487-.819-2.841,1.638.488.819Z" transform="translate(-489.982 -317.454)" fill="#fff"/>
        <path id="Path_248" data-name="Path 248" d="M602.928,463.989c-.253-.364-.5-.728-.747-1.1l-2.84,1.645c.331.494.65.988,1,1.476Z" transform="translate(-490.966 -319.036)" fill="#fff"/>
        <path id="Path_249" data-name="Path 249" d="M601.258,461.463c-.176-.273-.345-.54-.507-.813l-2.841,1.638c.169.273.331.546.507.813Z" transform="translate(-490.465 -318.252)" fill="#fff"/>
        <path id="Path_250" data-name="Path 250" d="M607.515,470.018l-.6-.748-2.6,2.015c.2.254.4.5.6.747Z" transform="translate(-492.705 -321.269)" fill="#fff"/>
        <path id="Path_251" data-name="Path 251" d="M609.19,472.068l-.65-.728-2.6,2.015c.2.247.41.487.65.734Z" transform="translate(-493.276 -321.994)" fill="#fff"/>
        <path id="Path_252" data-name="Path 252" d="M605.879,467.911l-.579-.76-2.6,2.015.579.767Z" transform="translate(-492.142 -320.527)" fill="#fff"/>
        <path id="Path_253" data-name="Path 253" d="M592.8,444.951c-.117-.293-.227-.591-.338-.89l-3.042,1.261c.117.3.227.6.345.891Z" transform="translate(-487.494 -312.446)" fill="#fff"/>
        <path id="Path_254" data-name="Path 254" d="M591.065,440.408q-.215-.65-.409-1.268l-3.185.793c.175.572.364,1.137.552,1.7Z" transform="translate(-486.811 -310.724)" fill="#fff"/>
        <path id="Path_255" data-name="Path 255" d="M586.725,419.326c0-.319-.065-.65-.084-.956l-3.25.344c0,.319.058.65.085.956Z" transform="translate(-485.383 -303.454)" fill="#fff"/>
        <path id="Path_256" data-name="Path 256" d="M611.214,474.341c-.3-.325-.591-.65-.884-.981l-2.6,2.022c.39.448.793.884,1.2,1.3Z" transform="translate(-493.902 -322.701)" fill="#fff"/>
        <path id="Path_257" data-name="Path 257" d="M586.416,414.457c0-.442-.033-.884-.046-1.3l-3.25-.117c0,.6,0,1.2.058,1.787Z" transform="translate(-485.288 -301.589)" fill="#fff"/>
        <path id="Path_258" data-name="Path 258" d="M586.36,408.743v-.956l-3.25-.117v.962Z" transform="translate(-485.285 -299.709)" fill="#fff"/>
        <path id="Path_259" data-name="Path 259" d="M587.34,424.619c-.045-.312-.091-.65-.13-.949l-3.25.344c.046.319.084.65.13.949Z" transform="translate(-485.583 -305.309)" fill="#fff"/>
        <path id="Path_260" data-name="Path 260" d="M586.991,421.979c-.039-.318-.071-.65-.11-.949l-3.25.338a7.682,7.682,0,0,0,.11.956Z" transform="translate(-485.467 -304.385)" fill="#fff"/>
        <path id="Path_261" data-name="Path 261" d="M589.486,434.94c-.084-.312-.169-.617-.247-.93l-3.179.793c.078.312.162.618.24.923Z" transform="translate(-486.318 -308.928)" fill="#fff"/>
        <path id="Path_262" data-name="Path 262" d="M590.2,437.507q-.143-.462-.273-.917l-3.179.793c.085.306.176.611.266.917Z" transform="translate(-486.559 -309.831)" fill="#fff"/>
        <path id="Path_263" data-name="Path 263" d="M681.975,505.43h-.5l-.234,3.25h.735Z" transform="translate(-519.631 -333.925)" fill="#fff"/>
        <path id="Path_264" data-name="Path 264" d="M587.834,427.62q-.123-.65-.234-1.3l-3.25.345c.1.585.2,1.176.312,1.755Z" transform="translate(-485.719 -306.237)" fill="#fff"/>
        <path id="Path_265" data-name="Path 265" d="M588.843,432.35l-.214-.93-3.178.793c.065.312.137.65.215.93Z" transform="translate(-486.104 -308.022)" fill="#fff"/>
        <path id="Path_266" data-name="Path 266" d="M648.315,499.215l-.9-.345-1.118,3.081.9.344Z" transform="translate(-507.402 -331.629)" fill="#fff"/>
        <path id="Path_267" data-name="Path 267" d="M661.146,503.055l-.936-.214-.65,3.2.929.214Z" transform="translate(-512.043 -333.019)" fill="#fff"/>
        <path id="Path_268" data-name="Path 268" d="M656.245,501.85c-.429-.117-.858-.24-1.3-.37l-1.124,3.087c.572.169,1.144.338,1.722.494Z" transform="translate(-510.034 -332.543)" fill="#fff"/>
        <path id="Path_269" data-name="Path 269" d="M653.344,500.979l-.91-.3-1.124,3.081.91.3Z" transform="translate(-509.155 -332.263)" fill="#fff"/>
        <path id="Path_270" data-name="Path 270" d="M650.818,500.128l-.9-.318-1.125,3.081.9.318Z" transform="translate(-508.273 -331.958)" fill="#fff"/>
        <path id="Path_271" data-name="Path 271" d="M663.792,503.609l-.943-.188-.65,3.2.936.189Z" transform="translate(-512.967 -333.222)" fill="#fff"/>
        <path id="Path_272" data-name="Path 272" d="M674.443,505.085l-.956-.084-.227,3.25.956.085Z" transform="translate(-516.838 -333.775)" fill="#fff"/>
        <path id="Path_273" data-name="Path 273" d="M666.395,504.093l-.942-.163-.682,3.211.943.156Z" transform="translate(-513.866 -333.4)" fill="#fff"/>
        <path id="Path_274" data-name="Path 274" d="M678.807,505.35l-.228,3.25.735.032V505.35Z" transform="translate(-518.7 -333.897)" fill="#fff"/>
        <path id="Path_275" data-name="Path 275" d="M669.4,504.552l-1.3-.182-.682,3.211c.585.091,1.177.169,1.768.247Z" transform="translate(-514.794 -333.554)" fill="#fff"/>
        <path id="Path_276" data-name="Path 276" d="M640.868,496.1l-.858-.416-1.54,2.893.858.422Z" transform="translate(-504.661 -330.513)" fill="#fff"/>
        <path id="Path_277" data-name="Path 277" d="M627.01,488.043l-.78-.553-1.95,2.652.774.553Z" transform="translate(-499.695 -327.646)" fill="#fff"/>
        <path id="Path_278" data-name="Path 278" d="M624.857,486.475l-.767-.585-1.95,2.652.76.578Z" transform="translate(-498.946 -327.086)" fill="#fff"/>
        <path id="Path_279" data-name="Path 279" d="M629.2,489.553c-.266-.176-.533-.351-.793-.533l-1.95,2.652.8.533Z" transform="translate(-500.457 -328.182)" fill="#fff"/>
        <path id="Path_280" data-name="Path 280" d="M620.9,483.472c-.344-.279-.65-.565-1.014-.852l-2.281,2.36c.448.39.9.773,1.365,1.144Z" transform="translate(-497.357 -325.942)" fill="#fff"/>
        <path id="Path_281" data-name="Path 281" d="M618.6,481.49l-.715-.65-2.275,2.353.715.65Z" transform="translate(-496.66 -325.319)" fill="#fff"/>
        <path id="Path_282" data-name="Path 282" d="M643.626,497.37l-1.215-.539-1.541,2.9,1.631.728Z" transform="translate(-505.501 -330.915)" fill="#fff"/>
        <path id="Path_283" data-name="Path 283" d="M616.637,479.7l-.7-.65L613.66,481.4l.7.65Z" transform="translate(-495.978 -324.692)" fill="#fff"/>
        <path id="Path_284" data-name="Path 284" d="M638.486,494.909l-.845-.448-1.541,2.893.845.448Z" transform="translate(-503.832 -330.086)" fill="#fff"/>
        <path id="Path_285" data-name="Path 285" d="M631.755,491.2c-.377-.228-.754-.461-1.125-.7l-1.95,2.652c.5.325,1,.65,1.515.949Z" transform="translate(-501.235 -328.7)" fill="#fff"/>
        <path id="Path_286" data-name="Path 286" d="M636.133,493.648c-.28-.15-.553-.312-.832-.468l-1.54,2.893.839.468Z" transform="translate(-503.013 -329.638)" fill="#fff"/>
        <path id="Path_287" data-name="Path 287" d="M620.577,346.18a50.876,50.876,0,0,1,27.372-13l-.494.7A50.78,50.78,0,0,0,604.97,379.1h9.341a.305.305,0,1,1,0,.6h-9.672a.3.3,0,0,1-.3-.3h0A50.9,50.9,0,0,1,620.577,346.18Z" transform="translate(-492.716 -273.638)" fill="#fff"/>
        <path id="Path_288" data-name="Path 288" d="M737.4,379.329a.286.286,0,0,1-.078.234.319.319,0,0,1-.221.1h-9.334a.306.306,0,0,1,0-.6h9a50.786,50.786,0,0,0-42.477-45.22l-.494-.7A51.064,51.064,0,0,1,737.4,379.329Z" transform="translate(-524.027 -273.624)" fill="#fff"/>
        <path id="Path_289" data-name="Path 289" d="M648.2,463.027l.423.65A51.058,51.058,0,0,1,604.34,417.4h0a.306.306,0,0,1,.078-.208.318.318,0,0,1,.221-.1h9.672a.306.306,0,1,1,0,.6H604.97A50.764,50.764,0,0,0,648.2,463.027Z" transform="translate(-492.716 -303.008)" fill="#fff"/>
        <path id="Path_290" data-name="Path 290" d="M737.038,417.432a51.044,51.044,0,0,1-44.278,46.274l.422-.65a50.8,50.8,0,0,0,43.225-45.331h-9a.305.305,0,0,1,0-.6h9.334a.318.318,0,0,1,.221.1.286.286,0,0,1,.078.214Z" transform="translate(-523.663 -303.017)" fill="#fff"/>
        <path id="Path_291" data-name="Path 291" d="M648.468,464.546l.41.65a53.138,53.138,0,0,1-47.957-50.082h0a.3.3,0,0,1,.085-.208.318.318,0,0,1,.221-.1H613.12a.305.305,0,1,1,0,.6H601.538a52.533,52.533,0,0,0,46.93,49.134Z" transform="translate(-491.518 -302.207)" fill="#fff"/>
        <path id="Path_292" data-name="Path 292" d="M738.487,415.112a53.151,53.151,0,0,1-47.957,50.083l.416-.65a52.526,52.526,0,0,0,46.917-49.14H726.625a.306.306,0,0,1,0-.6h11.557a.319.319,0,0,1,.221.1A.28.28,0,0,1,738.487,415.112Z" transform="translate(-522.882 -302.205)" fill="#fff"/>
        <path id="Path_293" data-name="Path 293" d="M648.415,329.54l-.474.65a52.533,52.533,0,0,0-46.416,49.088H613.1a.305.305,0,1,1,0,.6H601.206a.319.319,0,0,1-.221-.1.3.3,0,0,1-.085-.208h0a53.138,53.138,0,0,1,47.515-50.037Z" transform="translate(-491.512 -272.364)" fill="#fff"/>
        <path id="Path_294" data-name="Path 294" d="M738.746,379.584a.286.286,0,0,1-.084.221.318.318,0,0,1-.221.1H726.884a.305.305,0,0,1,0-.6h11.239a52.54,52.54,0,0,0-46.377-49.088l-.475-.65A53.15,53.15,0,0,1,738.746,379.584Z" transform="translate(-523.141 -272.371)" fill="#fff"/>
        <path id="Path_295" data-name="Path 295" d="M648.708,465.9l.4.65a55.289,55.289,0,0,1-51.551-54.021h0a.313.313,0,0,1,.085-.208.3.3,0,0,1,.215-.091h14.079a.305.305,0,1,1,0,.6H598.171A55.009,55.009,0,0,0,648.708,465.9Z" transform="translate(-490.342 -301.304)" fill="#fff"/>
        <path id="Path_296" data-name="Path 296" d="M739.908,412.485a55.289,55.289,0,0,1-51.538,54.022l.4-.65A55.023,55.023,0,0,0,739.3,412.765H725.868a.306.306,0,0,1,0-.6h13.741a.307.307,0,0,1,.215.091A.261.261,0,0,1,739.908,412.485Z" transform="translate(-522.126 -301.281)" fill="#fff"/>
        <path id="Path_297" data-name="Path 297" d="M614.089,341.728a54.944,54.944,0,0,1,34.756-15.678l-.462.65a55.018,55.018,0,0,0-50.245,53.066H611.9a.305.305,0,1,1,0,.6H597.839a.306.306,0,0,1-.215-.091.311.311,0,0,1-.084-.208h0A54.964,54.964,0,0,1,614.089,341.728Z" transform="translate(-490.336 -271.142)" fill="#fff"/>
        <path id="Path_298" data-name="Path 298" d="M740.031,380.055a.273.273,0,0,1-.085.215.305.305,0,0,1-.214.091H725.991a.305.305,0,0,1,0-.6H739.42a55.018,55.018,0,0,0-50.238-53.066l-.462-.65a55.3,55.3,0,0,1,51.311,54.009Z" transform="translate(-522.249 -271.139)" fill="#fff"/>
        <rect id="Rectangle_6" data-name="Rectangle 6" width="1.183" height="1.183" transform="translate(204.483 105.146) rotate(90)" fill="#fff"/>
        <rect id="Rectangle_7" data-name="Rectangle 7" width="1.183" height="1.183" transform="translate(204.483 106.641) rotate(90)" fill="#fff"/>
        <rect id="Rectangle_8" data-name="Rectangle 8" width="1.183" height="1.183" transform="translate(204.483 108.331) rotate(90)" fill="#fff"/>
        <rect id="Rectangle_9" data-name="Rectangle 9" width="1.183" height="1.183" transform="translate(204.483 110.613) rotate(90)" fill="#fff"/>
        <rect id="Rectangle_10" data-name="Rectangle 10" width="1.183" height="1.183" transform="translate(204.483 112.303) rotate(90)" fill="#fff"/>
        <rect id="Rectangle_11" data-name="Rectangle 11" width="1.183" height="1.183" transform="translate(204.483 113.798) rotate(90)" fill="#fff"/>
        <rect id="Rectangle_12" data-name="Rectangle 12" width="1.183" height="1.183" transform="translate(122.115 105.153) rotate(90)" fill="#fff"/>
        <rect id="Rectangle_13" data-name="Rectangle 13" width="1.183" height="1.183" transform="translate(122.109 106.641) rotate(90)" fill="#fff"/>
        <rect id="Rectangle_14" data-name="Rectangle 14" width="1.183" height="1.183" transform="translate(122.109 108.338) rotate(90)" fill="#fff"/>
        <rect id="Rectangle_15" data-name="Rectangle 15" width="1.183" height="1.183" transform="translate(122.109 110.613) rotate(90)" fill="#fff"/>
        <rect id="Rectangle_16" data-name="Rectangle 16" width="1.183" height="1.183" transform="translate(122.115 112.309) rotate(90)" fill="#fff"/>
        <rect id="Rectangle_17" data-name="Rectangle 17" width="1.183" height="1.183" transform="translate(122.115 113.804) rotate(90)" fill="#fff"/>
        <path id="Path_299" data-name="Path 299" d="M731.621,436.822a.611.611,0,0,1-.546.6,46.91,46.91,0,0,1-33.586,28.086l.449-.708a46.312,46.312,0,0,0,32.584-27.612.611.611,0,1,1,1.1-.37Z" transform="translate(-525.318 -309.699)" fill="#310000"/>
        <path id="Path_300" data-name="Path 300" d="M648.088,341l-.54.747a46.3,46.3,0,0,0-31.271,27.3.617.617,0,1,1-1.047.436.611.611,0,0,1,.462-.585A46.891,46.891,0,0,1,648.088,341Z" transform="translate(-496.527 -276.375)" fill="#310000"/>
        <path id="Path_301" data-name="Path 301" d="M646.672,349l-.65.878A42.5,42.5,0,0,0,622.745,371.9a.592.592,0,0,1,.2.448.617.617,0,1,1-1.228,0,.6.6,0,0,1,.423-.572A43.075,43.075,0,0,1,646.672,349Z" transform="translate(-498.797 -279.175)" fill="#fff"/>
        <path id="Path_302" data-name="Path 302" d="M644.425,358.72l-.865,1.209a38.6,38.6,0,0,0-14.209,15.359.6.6,0,0,1,.176.429.617.617,0,1,1-1.229,0,.6.6,0,0,1,.455-.578,39.2,39.2,0,0,1,15.672-16.419Z" transform="translate(-501.1 -282.577)" fill="#fff"/>
        <path id="Path_303" data-name="Path 303" d="M732.318,369.54a.617.617,0,1,1-1.228,0,.586.586,0,0,1,.156-.4,46.351,46.351,0,0,0-31.232-27.332l-.533-.741a46.9,46.9,0,0,1,32.325,27.9A.6.6,0,0,1,732.318,369.54Z" transform="translate(-526.015 -276.399)" fill="#fff"/>
        <path id="Path_304" data-name="Path 304" d="M730.048,372.316a.618.618,0,1,1-1.06-.422,42.484,42.484,0,0,0-23.218-22.016l-.65-.878a43.043,43.043,0,0,1,24.434,22.75A.611.611,0,0,1,730.048,372.316Z" transform="translate(-527.989 -279.175)" fill="#fff"/>
        <path id="Path_305" data-name="Path 305" d="M728.258,375.746a.618.618,0,1,1-1.229,0,.592.592,0,0,1,.15-.39,38.545,38.545,0,0,0-14.137-15.34l-.871-1.215a39.221,39.221,0,0,1,15.6,16.354A.611.611,0,0,1,728.258,375.746Z" transform="translate(-530.456 -282.605)" fill="#fff"/>
        <path id="Path_306" data-name="Path 306" d="M649.378,465.556a46.91,46.91,0,0,1-33.644-28.112.6.6,0,0,1-.494-.592.617.617,0,0,1,1.228,0,.61.61,0,0,1-.162.409,46.319,46.319,0,0,0,32.637,27.593Z" transform="translate(-496.53 -309.729)" fill="#fff"/>
        <path id="Path_307" data-name="Path 307" d="M648.657,460.781a43.062,43.062,0,0,1-26.442-23.348.611.611,0,1,1,.767-.585.6.6,0,0,1-.176.429,42.485,42.485,0,0,0,25.35,22.711Z" transform="translate(-498.813 -309.706)" fill="#fff"/>
        <path id="Path_308" data-name="Path 308" d="M647.521,455.344a39.207,39.207,0,0,1-18.726-17.9.6.6,0,0,1-.494-.591.618.618,0,0,1,1.229,0,.572.572,0,0,1-.156.4,38.629,38.629,0,0,0,17.55,17.16Z" transform="translate(-501.102 -309.729)" fill="#fff"/>
        <path id="Path_309" data-name="Path 309" d="M645.438,448.282a35.286,35.286,0,0,1-9.88-10.868.6.6,0,0,1-.6-.611.617.617,0,1,1,1.124.325,34.535,34.535,0,0,0,8.45,9.75Z" transform="translate(-503.432 -309.681)" fill="#fff"/>
        <path id="Path_310" data-name="Path 310" d="M728.99,436.859a.6.6,0,0,1-.513.592A43.07,43.07,0,0,1,702.1,460.811l.507-.8a42.47,42.47,0,0,0,25.3-22.75.592.592,0,0,1-.15-.39.618.618,0,0,1,1.229,0Z" transform="translate(-526.932 -309.736)" fill="#fff"/>
        <path id="Path_311" data-name="Path 311" d="M726.581,436.852a.611.611,0,0,1-.546.6,39.253,39.253,0,0,1-18.655,17.869l.591-.943a38.67,38.67,0,0,0,17.511-17.173.572.572,0,0,1-.13-.358.617.617,0,0,1,1.229,0Z" transform="translate(-528.78 -309.729)" fill="#fff"/>
        <path id="Path_312" data-name="Path 312" d="M724.639,436.872a.65.65,0,0,1-.65.65h0a35.393,35.393,0,0,1-9.789,10.8l.9-1.43a34.746,34.746,0,0,0,8.378-9.691.649.649,0,0,1-.078-.292.617.617,0,0,1,1.229,0Z" transform="translate(-531.167 -309.75)" fill="#fff"/>
        <path id="Path_313" data-name="Path 313" d="M662.84,325.646l-34.671,48.405a.825.825,0,0,0,.273,1.2L663.106,394.4a.819.819,0,0,0,.793,0l34.671-19.149a.825.825,0,0,0,.273-1.2l-34.671-48.405a.819.819,0,0,0-1.333,0Z" transform="translate(-501.003 -270.881)" fill="#fff"/>
        <path id="Path_314" data-name="Path 314" d="M664.605,431.286l32.565-19.019a.819.819,0,0,1,1.105,1.144l-33.391,53.053a.826.826,0,0,1-1.391,0l-33.4-53.053a.819.819,0,0,1,1.112-1.144l32.584,19.019A.825.825,0,0,0,664.605,431.286Z" transform="translate(-501.683 -301.277)" fill="#fff"/>
        <path id="Path_315" data-name="Path 315" d="M683.017,394.4l34.671-19.149a.826.826,0,0,0,.273-1.2L683.29,325.648a.813.813,0,0,0-.65-.338V394.5a.859.859,0,0,0,.377-.1Z" transform="translate(-520.121 -270.883)" fill="#fff"/>
        <path id="Path_316" data-name="Path 316" d="M683.08,431.341v35.444a.811.811,0,0,0,.4-.318l33.39-53.053a.819.819,0,0,0-1.105-1.144L683.2,431.289Z" transform="translate(-520.274 -301.281)" fill="#fff"/>
        <path id="Path_317" data-name="Path 317" d="M682.668,441.473l-.117.065a.826.826,0,0,1-.832,0l-.169-.1c-.247,9.64-.436,22.386-.227,35.1l.117.188a.825.825,0,0,0,1.391,0l.137-.221C683.084,467.707,683.032,456.1,682.668,441.473Z" transform="translate(-519.628 -311.529)" fill="#fff"/>
        <path id="Path_318" data-name="Path 318" d="M682.219,325.316a.837.837,0,0,0-.221,0c-.4,9.822-1.554,43.706.1,69.173a.713.713,0,0,0,.163,0C682.6,389.458,683.818,367.651,682.219,325.316Z" transform="translate(-519.628 -270.883)" fill="#fff"/>
        <circle id="Ellipse_3" data-name="Ellipse 3" cx="14.235" cy="14.235" r="14.235" transform="translate(270.081 160.786)" fill="#fff"/>
        <path id="Path_319" data-name="Path 319" d="M864.639,502.367v8.45H862.78a1.534,1.534,0,0,0-1.56,1.45,1.5,1.5,0,0,0,1.489,1.534h.89a2.23,2.23,0,0,0,2.229-2.236v-5.909a.287.287,0,0,1,.247-.273l5.018-.533a.267.267,0,0,1,.3.273v4.205h-1.774a1.534,1.534,0,0,0-1.56,1.45,1.489,1.489,0,0,0,1.489,1.527h.891a2.23,2.23,0,0,0,2.229-2.229V501.3a.273.273,0,0,0-.312-.267l-7.482,1.073A.273.273,0,0,0,864.639,502.367Z" transform="translate(-582.623 -332.384)" fill="#fff"/>
        <rect id="Rectangle_18" data-name="Rectangle 18" width="38.272" height="32.11" rx="4.5" transform="translate(265.187 60.862)" fill="#fff"/>
        <rect id="Rectangle_19" data-name="Rectangle 19" width="29.958" height="18.772" rx="2.18" transform="translate(269.34 64.833)" fill="#fff"/>
        <path id="Path_320" data-name="Path 320" d="M870.367,373.24H847.708a.7.7,0,0,0,0,1.4h22.659a.7.7,0,0,0,0-1.4Z" transform="translate(-577.672 -287.659)" fill="#fff"/>
        <path id="Path_321" data-name="Path 321" d="M865.59,376.79H847.675a.7.7,0,0,0,0,1.391H865.59a.7.7,0,0,0,0-1.391Z" transform="translate(-577.64 -288.901)" fill="#fff"/>
        <path id="Path_322" data-name="Path 322" d="M868.857,349.222l-3.075,4.245a.65.65,0,0,1-1.007,0l-5.2-7.2a.65.65,0,0,0-1.007,0l-8.119,11.212a.65.65,0,0,0,.507.988H875.35a.65.65,0,0,0,.507-.988l-5.98-8.261a.65.65,0,0,0-1.021,0Z" transform="translate(-578.82 -278.136)" fill="#fff"/>
        <circle id="Ellipse_4" data-name="Ellipse 4" cx="2.522" cy="2.522" r="2.522" transform="translate(283.809 66.92)" fill="#fff"/>
        <path id="Path_323" data-name="Path 323" d="M890,373.91H876.185a.65.65,0,0,0-.533.273l-5.818,8.235h-41.88l-4.517-7.215a.65.65,0,0,0-.553-.306H811.51a.65.65,0,1,0,0,1.3h11.018l4.55,7.215a.65.65,0,0,0,.552.306H870.2a.651.651,0,0,0,.533-.279l5.85-8.255h13.474Z" transform="translate(-564.998 -287.893)" fill="#fff"/>
        <path id="Path_324" data-name="Path 324" d="M811.67,375.42a1.95,1.95,0,1,0-1.95,1.95A1.95,1.95,0,0,0,811.67,375.42Z" transform="translate(-563.916 -287.739)" fill="#fff"/>
        <path id="Path_325" data-name="Path 325" d="M819.14,396.1a1.95,1.95,0,1,0-1.95,1.95A1.95,1.95,0,0,0,819.14,396.1Z" transform="translate(-566.531 -294.977)" fill="#fff"/>
        <path id="Path_326" data-name="Path 326" d="M846.9,457.39a1.95,1.95,0,1,0-1.95,1.95A1.95,1.95,0,0,0,846.9,457.39Z" transform="translate(-576.247 -316.429)" fill="#fff"/>
        <ellipse id="Ellipse_5" data-name="Ellipse 5" cx="1.963" cy="1.963" rx="1.963" ry="1.963" transform="translate(250.646 144.478)" fill="#fff"/>
        <path id="Path_327" data-name="Path 327" d="M790.19,486.45a1.95,1.95,0,1,0-1.95,1.95A1.95,1.95,0,0,0,790.19,486.45Z" transform="translate(-556.398 -326.6)" fill="#fff"/>
        <path id="Path_328" data-name="Path 328" d="M779.9,505.47a1.95,1.95,0,1,0-1.95,1.95,1.95,1.95,0,0,0,1.95-1.95Z" transform="translate(-552.797 -333.257)" fill="#fff"/>
        <path id="Path_329" data-name="Path 329" d="M783.09,495.17a1.95,1.95,0,1,0-1.95,1.95A1.95,1.95,0,0,0,783.09,495.17Z" transform="translate(-553.913 -329.652)" fill="#fff"/>
        <path id="Path_330" data-name="Path 330" d="M835.03,407.75a1.95,1.95,0,1,0-1.95,1.95A1.95,1.95,0,0,0,835.03,407.75Z" transform="translate(-572.092 -299.055)" fill="#fff"/>
        <path id="Path_331" data-name="Path 331" d="M847.9,415.2a1.95,1.95,0,1,0-1.95,1.95A1.95,1.95,0,0,0,847.9,415.2Z" transform="translate(-576.597 -301.662)" fill="#fff"/>
        <path id="Path_332" data-name="Path 332" d="M918.28,380.42a1.95,1.95,0,1,1-1.95-1.95A1.95,1.95,0,0,1,918.28,380.42Z" transform="translate(-601.23 -289.489)" fill="#fff"/>
        <path id="Path_333" data-name="Path 333" d="M926.922,380.47H917.01a.65.65,0,1,0,0,1.3h9.912Z" transform="translate(-601.923 -290.189)" fill="#fff"/>
        <ellipse id="Ellipse_6" data-name="Ellipse 6" cx="1.963" cy="1.963" rx="1.963" ry="1.963" transform="translate(313.124 94.116)" fill="#fff"/>
        <path id="Path_334" data-name="Path 334" d="M926.922,388.39H917.01a.65.65,0,0,0,0,1.3h9.912Z" transform="translate(-601.923 -292.961)" fill="#fff"/>
        <path id="Path_335" data-name="Path 335" d="M892.8,396.15H819.51a.65.65,0,1,0,0,1.3H892.8Z" transform="translate(-567.798 -295.677)" fill="#fff"/>
        <path id="Path_336" data-name="Path 336" d="M866.188,405.027H833.76a.65.65,0,1,1,0-1.3h32.266l15.554-7.507a.65.65,0,0,1,.566,1.17l-15.691,7.573A.593.593,0,0,1,866.188,405.027Z" transform="translate(-572.785 -295.682)" fill="#fff"/>
        <path id="Path_337" data-name="Path 337" d="M902.86,404.55H889.047a.651.651,0,0,0-.305.078l-13,6.877H848.26a.65.65,0,0,0,0,1.3h27.625a.727.727,0,0,0,.305-.072l13-6.883h13.65Z" transform="translate(-577.86 -298.617)" fill="#fff"/>
        <path id="Path_347" data-name="Path 347" d="M863.84,467.17H821.59a.65.65,0,1,1,0-1.3h42.25a.65.65,0,0,1,0,1.3Z" transform="translate(-568.526 -320.079)" fill="#fff"/>
        <path id="Path_348" data-name="Path 348" d="M882.094,473.2H815.58a.65.65,0,0,0-.488.228l-7.39,8.45H788.93a.65.65,0,1,0,0,1.3h19.065a.65.65,0,0,0,.488-.221l7.39-8.45h66.222Z" transform="translate(-557.095 -322.645)" fill="#fff"/>
        <path id="Path_349" data-name="Path 349" d="M878.769,479.87H825.58a.65.65,0,0,0-.514.247L812.073,496.66H779.43a.65.65,0,1,0,0,1.3h32.929a.65.65,0,0,0,.513-.247l13-16.542H878.75Z" transform="translate(-553.77 -324.979)" fill="#fff"/>
        <path id="Path_350" data-name="Path 350" d="M809.255,497.17H782.93a.65.65,0,1,1,0-1.3h26.325a.65.65,0,0,1,0,1.3Z" transform="translate(-554.995 -330.579)" fill="#fff"/>
        <circle id="Ellipse_7" data-name="Ellipse 7" cx="1.501" cy="1.501" r="1.501" transform="translate(303.023 159.636)" fill="#fff"/>
        <circle id="Ellipse_8" data-name="Ellipse 8" cx="1.501" cy="1.501" r="1.501" transform="translate(310.602 159.636)" fill="#fff"/>
        <circle id="Ellipse_9" data-name="Ellipse 9" cx="1.501" cy="1.501" r="1.501" transform="translate(318.175 159.636)" fill="#fff"/>
        <path id="Path_351" data-name="Path 351" d="M456.426,395H438.064a.65.65,0,0,0-.65.65v7.962h-4.8v1.3h5.453a.65.65,0,0,0,.65-.65V396.3h17.712a.65.65,0,1,0,0-1.3Z" transform="translate(-432.61 -295.275)" fill="#fff"/>
        <path id="Path_352" data-name="Path 352" d="M491.487,401.6H441.795a.65.65,0,0,0-.65.65v10.965H432.61v1.3h9.185a.65.65,0,0,0,.65-.65V402.9h49.042a.65.65,0,1,0,0-1.3Z" transform="translate(-432.61 -287.585)" fill="#fff"/>
        <ellipse id="Ellipse_10" data-name="Ellipse 10" cx="11.505" cy="11.505" rx="11.505" ry="11.505" transform="translate(24.717 160.284) rotate(-80.78)" fill="#fff"/>
        <path id="Path_358" data-name="Path 358" d="M53.43,331.85v9.406l9.4-4.706Z" transform="translate(-18.701 -185.799)" fill="#fff"/>
        <circle id="Ellipse_11" data-name="Ellipse 11" cx="12.928" cy="12.928" r="12.928" transform="matrix(0.222, -0.975, 0.975, 0.222, 52.196, 69.133)" fill="#fff"/>
        <path id="Path_359" data-name="Path 359" d="M540.357,329.633c0-3.38-3.549-6.123-7.93-6.123s-7.937,2.743-7.937,6.123,3.458,6.038,7.755,6.11a17.551,17.551,0,0,0-.975,2.021c.058,0,1.709-1.3,2.86-2.158C537.692,335,540.357,332.558,540.357,329.633Z" transform="translate(-464.768 -270.253)" fill="#fff"/>
        <path id="Path_360" data-name="Path 360" d="M531.648,332.209a1.333,1.333,0,1,1-.39-.949A1.339,1.339,0,0,1,531.648,332.209Z" transform="translate(-466.336 -272.829)" fill="#fff"/>
        <path id="Path_361" data-name="Path 361" d="M537.308,332.209a1.339,1.339,0,1,1-1.3-1.339A1.339,1.339,0,0,1,537.308,332.209Z" transform="translate(-468.317 -272.829)" fill="#fff"/>
        <path id="Path_362" data-name="Path 362" d="M542.978,332.209a1.332,1.332,0,1,1-.39-.949A1.339,1.339,0,0,1,542.978,332.209Z" transform="translate(-470.302 -272.829)" fill="#fff"/>
        <path id="Path_363" data-name="Path 363" d="M515.374,466.57H491.532a.65.65,0,0,0-.578.357l-9.99,19.76H458.506l-9.874-19.76a.65.65,0,0,0-.578-.357H432.61v1.3h15.041l9.874,19.78a.65.65,0,0,0,.579.357h23.276a.65.65,0,0,0,.578-.357l9.977-19.76h23.439a.65.65,0,0,0,0-1.3Z" transform="translate(-432.61 -320.325)" fill="#fff"/>
        <path id="Path_364" data-name="Path 364" d="M562.34,466.64a1.95,1.95,0,1,1-1.95-1.95A1.95,1.95,0,0,1,562.34,466.64Z" transform="translate(-476.651 -319.666)" fill="#fff"/>
        <path id="Path_365" data-name="Path 365" d="M521.874,475.463H494.783a.65.65,0,0,0-.578.358l-9.991,19.76H454.606l-9.874-19.773a.65.65,0,0,0-.579-.357H432.61v1.3h11.141l9.874,19.76a.65.65,0,0,0,.578.357h30.427a.65.65,0,0,0,.579-.357l9.977-19.76h26.689a.65.65,0,1,0,0-1.3Z" transform="translate(-432.61 -323.432)" fill="#fff"/>
        <path id="Path_366" data-name="Path 366" d="M572.34,475.54a1.95,1.95,0,1,1-1.95-1.95A1.95,1.95,0,0,1,572.34,475.54Z" transform="translate(-480.151 -322.781)" fill="#fff"/>
        <path id="Path_386" data-name="Path 386" d="M447.08,502.04a1.95,1.95,0,1,1-1.95-1.95A1.95,1.95,0,0,1,447.08,502.04Z" transform="translate(-436.309 -332.056)" fill="#fff"/>
        <path id="Path_387" data-name="Path 387" d="M447.08,493.95a1.95,1.95,0,1,1-1.95-1.95A1.95,1.95,0,0,1,447.08,493.95Z" transform="translate(-436.309 -329.225)" fill="#fff"/>
        <path id="Path_388" data-name="Path 388" d="M440.9,485.89H432.61v1.3H440.9a.65.65,0,0,0,0-1.3Z" transform="translate(-432.61 -327.086)" fill="#fff"/>
        <path id="Path_389" data-name="Path 389" d="M440.9,494H432.61v1.3H440.9a.65.65,0,0,0,0-1.3Z" transform="translate(-432.61 -329.925)" fill="#fff"/>
        <path id="Path_390" data-name="Path 390" d="M440.9,502.09H432.61v1.3H440.9a.65.65,0,0,0,0-1.3Z" transform="translate(-432.61 -332.756)" fill="#fff"/>
        <path id="Path_391" data-name="Path 391" d="M574.28,485.76a1.95,1.95,0,1,1-1.95-1.95A1.95,1.95,0,0,1,574.28,485.76Z" transform="translate(-480.83 -326.358)" fill="#fff"/>
        <path id="Path_392" data-name="Path 392" d="M595.28,502.04a1.95,1.95,0,1,1-1.95-1.95A1.95,1.95,0,0,1,595.28,502.04Z" transform="translate(-488.18 -332.056)" fill="#fff"/>
        <path id="Path_393" data-name="Path 393" d="M587.28,493.95a1.95,1.95,0,1,1-1.95-1.95A1.95,1.95,0,0,1,587.28,493.95Z" transform="translate(-485.38 -329.225)" fill="#fff"/>
        <path id="Path_394" data-name="Path 394" d="M534.53,485.76a1.95,1.95,0,1,1-1.95-1.95A1.95,1.95,0,0,1,534.53,485.76Z" transform="translate(-466.917 -326.358)" fill="#fff"/>
        <path id="Path_395" data-name="Path 395" d="M524.53,502.04a1.95,1.95,0,1,1-1.95-1.95A1.95,1.95,0,0,1,524.53,502.04Z" transform="translate(-463.417 -332.056)" fill="#fff"/>
        <path id="Path_396" data-name="Path 396" d="M528.53,493.95a1.95,1.95,0,1,1-1.95-1.95A1.95,1.95,0,0,1,528.53,493.95Z" transform="translate(-464.817 -329.225)" fill="#fff"/>
        <path id="Path_397" data-name="Path 397" d="M559.043,487.19H534.59a.65.65,0,0,1,0-1.3h24.453a.65.65,0,1,1,0,1.3Z" transform="translate(-468.076 -327.086)" fill="#fff"/>
        <path id="Path_398" data-name="Path 398" d="M565.393,495.3h-36.8a.65.65,0,1,1,0-1.3h36.8a.65.65,0,1,1,0,1.3Z" transform="translate(-465.976 -329.925)" fill="#fff"/>
        <path id="Path_399" data-name="Path 399" d="M569.193,503.39h-44.6a.65.65,0,0,1,0-1.3h44.6a.65.65,0,0,1,0,1.3Z" transform="translate(-464.576 -332.756)" fill="#fff"/>
        <path id="Path_400" data-name="Path 400" d="M514.718,358.71H465.363a.65.65,0,0,0-.461.195l-10.452,10.68H432.61v1.3h22.139a.649.649,0,0,0,.468-.195l10.446-10.68h49.055a.65.65,0,1,0,0-1.3Z" transform="translate(-432.61 -282.573)" fill="#fff"/>
        <path id="Path_401" data-name="Path 401" d="M508.224,389.769H465.572l-10.485-6.338a.7.7,0,0,0-.338-.091H432.61v1.3h21.957l10.485,6.338a.7.7,0,0,0,.338.091h42.835a.65.65,0,0,0,0-1.3Z" transform="translate(-432.61 -291.194)" fill="#fff"/>
        <path id="Path_402" data-name="Path 402" d="M509.39,340.37a1.95,1.95,0,1,1-1.95-1.95A1.95,1.95,0,0,1,509.39,340.37Z" transform="translate(-458.118 -275.472)" fill="#fff"/>
        <path id="Path_403" data-name="Path 403" d="M481.847,340.42H432.61v1.3h49.237a.65.65,0,1,0,0-1.3Z" transform="translate(-432.61 -276.172)" fill="#fff"/>
        <path id="Path_404" data-name="Path 404" d="M488.51,347.51a1.95,1.95,0,1,1-1.95-1.95A1.95,1.95,0,0,1,488.51,347.51Z" transform="translate(-450.81 -277.971)" fill="#fff"/>
        <path id="Path_405" data-name="Path 405" d="M468.282,347.56H432.61v1.3h35.672a.65.65,0,1,0,0-1.3Z" transform="translate(-432.61 -278.671)" fill="#fff"/>
        <path id="Path_406" data-name="Path 406" d="M464.95,354.69a1.95,1.95,0,1,1-1.95-1.95A1.95,1.95,0,0,1,464.95,354.69Z" transform="translate(-442.564 -280.484)" fill="#fff"/>
        <path id="Path_407" data-name="Path 407" d="M452.961,354.74H432.61v1.3h20.351a.65.65,0,0,0,0-1.3Z" transform="translate(-432.61 -281.184)" fill="#fff"/>
        <ellipse id="Ellipse_12" data-name="Ellipse 12" cx="1.963" cy="1.963" rx="1.963" ry="1.963" transform="translate(18.46 77.963)" fill="#fff"/>
        <path id="Path_408" data-name="Path 408" d="M452.961,363.54H432.61v1.3h20.351a.65.65,0,0,0,0-1.3Z" transform="translate(-432.61 -284.264)" fill="#fff"/>
        <path id="Path_413" data-name="Path 413" d="M489.67,374.36a1.95,1.95,0,1,1-1.95-1.95A1.95,1.95,0,0,1,489.67,374.36Z" transform="translate(-451.216 -287.368)" fill="#fff"/>
        <path id="Path_414" data-name="Path 414" d="M527,375.71H488.4a.65.65,0,1,1,0-1.3H527a.65.65,0,0,1,0,1.3Z" transform="translate(-451.909 -288.068)" fill="#fff"/>
        <path id="Path_415" data-name="Path 415" d="M550.9,383.3a1.95,1.95,0,1,1-1.95-1.95A1.95,1.95,0,0,1,550.9,383.3Z" transform="translate(-472.647 -290.497)" fill="#fff"/>
        <path id="Path_416" data-name="Path 416" d="M489.67,383.3a1.95,1.95,0,1,1-1.95-1.95A1.95,1.95,0,0,1,489.67,383.3Z" transform="translate(-451.216 -290.497)" fill="#fff"/>
        <path id="Path_417" data-name="Path 417" d="M527,384.65H488.4a.65.65,0,1,1,0-1.3H527a.65.65,0,0,1,0,1.3Z" transform="translate(-451.909 -291.197)" fill="#fff"/>
        <path id="Path_418" data-name="Path 418" d="M593.56,304.35a1.95,1.95,0,1,1-1.95-1.95A1.95,1.95,0,0,1,593.56,304.35Z" transform="translate(-487.578 -262.865)" fill="#fff"/>
        <path id="Path_419" data-name="Path 419" d="M536.5,304.4H487.78a.65.65,0,0,0-.5.234l-14.3,16.855h-40.3v1.3H473.3a.65.65,0,0,0,.494-.227L488.1,305.7h48.4a.65.65,0,0,0,0-1.3Z" transform="translate(-432.634 -263.565)" fill="#fff"/>
        <path id="Path_420" data-name="Path 420" d="M808.325,287.985l-9.7,13.539a.234.234,0,0,0,.078.338l9.7,5.356a.221.221,0,0,0,.221,0l9.73-5.356a.234.234,0,0,0,.078-.338l-9.7-13.54a.234.234,0,0,0-.41,0Z" transform="translate(-560.702 -257.777)" fill="#fff"/>
        <path id="Path_421" data-name="Path 421" d="M808.777,317.551l9.1-5.317a.228.228,0,0,1,.306.319l-9.341,14.839a.234.234,0,0,1-.39,0l-9.34-14.839a.227.227,0,0,1,.305-.319l9.1,5.324A.234.234,0,0,0,808.777,317.551Z" transform="translate(-560.873 -266.296)" fill="#fff"/>
        <path id="Path_422" data-name="Path 422" d="M511.983,525.868,504.371,536.5a.176.176,0,0,0,.059.26l7.612,4.206a.17.17,0,0,0,.176,0l7.618-4.206a.182.182,0,0,0,.058-.26l-7.618-10.627a.175.175,0,0,0-.293,0Z" transform="translate(-457.714 -341.051)" fill="#fff"/>
        <path id="Path_423" data-name="Path 423" d="M512.376,549.066l7.15-4.18a.182.182,0,0,1,.247.254l-7.339,11.648a.175.175,0,0,1-.3,0L504.8,545.14a.182.182,0,0,1,.241-.254l7.15,4.18A.182.182,0,0,0,512.376,549.066Z" transform="translate(-457.867 -347.726)" fill="#fff"/>
        <path id="Path_424" data-name="Path 424" d="M598.823,262.97l-5.635,7.865a.136.136,0,0,0,.046.2l5.636,3.113a.117.117,0,0,0,.13,0l5.635-3.114a.136.136,0,0,0,.046-.195l-5.636-7.865a.137.137,0,0,0-.221,0Z" transform="translate(-488.804 -249.044)" fill="#fff"/>
        <path id="Path_425" data-name="Path 425" d="M599.11,280.136l5.3-3.094a.136.136,0,0,1,.182.188l-5.434,8.619a.13.13,0,0,1-.221,0L593.5,277.23a.137.137,0,0,1,.182-.188l5.3,3.094A.149.149,0,0,0,599.11,280.136Z" transform="translate(-488.915 -253.984)" fill="#fff"/>
        <path id="Path_426" data-name="Path 426" d="M761.783,516.788l-5.635,7.865a.136.136,0,0,0,.046.2l5.635,3.107a.117.117,0,0,0,.13,0l5.635-3.114a.136.136,0,0,0,.045-.2L762,516.781a.13.13,0,0,0-.214.007Z" transform="translate(-545.84 -337.88)" fill="#fff"/>
        <path id="Path_427" data-name="Path 427" d="M762.07,533.961l5.3-3.094a.13.13,0,0,1,.175.189l-5.427,8.619a.137.137,0,0,1-.227,0l-5.427-8.619a.136.136,0,0,1,.182-.189l5.3,3.094A.15.15,0,0,0,762.07,533.961Z" transform="translate(-545.951 -342.82)" fill="#fff"/>
        <circle id="Ellipse_13" data-name="Ellipse 13" cx="1.501" cy="1.501" r="1.501" transform="translate(11.927 51.06)" fill="#fff"/>
        <circle id="Ellipse_14" data-name="Ellipse 14" cx="1.501" cy="1.501" r="1.501" transform="translate(19.5 51.06)" fill="#fff"/>
        <circle id="Ellipse_15" data-name="Ellipse 15" cx="1.501" cy="1.501" r="1.501" transform="translate(27.079 51.06)" fill="#fff"/>
        <path id="Path_429" data-name="Path 429" d="M550.9,383.3a1.95,1.95,0,1,1-1.95-1.95A1.95,1.95,0,0,1,550.9,383.3Z" transform="translate(-488.646 -268.497)" fill="#fff"/>
        <path id="Path_430" data-name="Path 430" d="M550.9,383.3a1.95,1.95,0,1,1-1.95-1.95A1.95,1.95,0,0,1,550.9,383.3Z" transform="translate(-549.646 -256.497)" fill="#fff"/>
        <path id="Path_431" data-name="Path 431" d="M550.9,383.3a1.95,1.95,0,1,1-1.95-1.95A1.95,1.95,0,0,1,550.9,383.3Z" transform="translate(-549.646 -236.497)" fill="#fff"/>
        <path id="Path_432" data-name="Path 432" d="M550.9,383.3a1.95,1.95,0,1,1-1.95-1.95A1.95,1.95,0,0,1,550.9,383.3Z" transform="translate(-549.646 -230.497)" fill="#fff"/>
        <path id="Path_433" data-name="Path 433" d="M550.9,383.3a1.95,1.95,0,1,1-1.95-1.95A1.95,1.95,0,0,1,550.9,383.3Z" transform="translate(-549.646 -224.497)" fill="#fff"/>
        <path id="Path_434" data-name="Path 434" d="M550.9,383.3a1.95,1.95,0,1,1-1.95-1.95A1.95,1.95,0,0,1,550.9,383.3Z" transform="translate(-549.646 -218.497)" fill="#fff"/>
        <path id="Path_435" data-name="Path 435" d="M550.9,383.3a1.95,1.95,0,1,1-1.95-1.95A1.95,1.95,0,0,1,550.9,383.3Z" transform="translate(-549.646 -213.497)" fill="#fff"/>
        <path id="Path_436" data-name="Path 436" d="M550.9,383.3a1.95,1.95,0,1,1-1.95-1.95A1.95,1.95,0,0,1,550.9,383.3Z" transform="translate(-548.646 -274.497)" fill="#fff"/>
        <path id="Path_437" data-name="Path 437" d="M550.9,383.3a1.95,1.95,0,1,1-1.95-1.95A1.95,1.95,0,0,1,550.9,383.3Z" transform="translate(-548.646 -303.497)" fill="#fff"/>
        <path id="Path_438" data-name="Path 438" d="M550.9,383.3a1.95,1.95,0,1,1-1.95-1.95A1.95,1.95,0,0,1,550.9,383.3Z" transform="translate(-548.646 -290.497)" fill="#fff"/>
        <path id="Path_439" data-name="Path 439" d="M550.9,383.3a1.95,1.95,0,1,1-1.95-1.95A1.95,1.95,0,0,1,550.9,383.3Z" transform="translate(-548.646 -295.497)" fill="#fff"/>
        <path id="Path_440" data-name="Path 440" d="M550.9,383.3a1.95,1.95,0,1,1-1.95-1.95A1.95,1.95,0,0,1,550.9,383.3Z" transform="translate(-548.646 -308.497)" fill="#fff"/>
        <path id="Path_441" data-name="Path 441" d="M550.9,383.3a1.95,1.95,0,1,1-1.95-1.95A1.95,1.95,0,0,1,550.9,383.3Z" transform="translate(-548.646 -318.497)" fill="#fff"/>
        <path id="Path_442" data-name="Path 442" d="M550.9,383.3a1.95,1.95,0,1,1-1.95-1.95A1.95,1.95,0,0,1,550.9,383.3Z" transform="translate(-549.646 -325.497)" fill="#fff"/>
        <path id="Path_443" data-name="Path 443" d="M550.9,383.3a1.95,1.95,0,1,1-1.95-1.95A1.95,1.95,0,0,1,550.9,383.3Z" transform="translate(-548.646 -313.497)" fill="#fff"/>
        <path id="Path_444" data-name="Path 444" d="M550.9,383.3a1.95,1.95,0,1,1-1.95-1.95A1.95,1.95,0,0,1,550.9,383.3Z" transform="translate(-223.646 -276.497)" fill="#fff"/>
        <path id="Path_445" data-name="Path 445" d="M550.9,383.3a1.95,1.95,0,1,1-1.95-1.95A1.95,1.95,0,0,1,550.9,383.3Z" transform="translate(-223.646 -282.497)" fill="#fff"/>
        <path id="Path_446" data-name="Path 446" d="M550.9,383.3a1.95,1.95,0,1,1-1.95-1.95A1.95,1.95,0,0,1,550.9,383.3Z" transform="translate(-223.646 -287.497)" fill="#fff"/>
        <path id="Path_447" data-name="Path 447" d="M550.9,383.3a1.95,1.95,0,1,1-1.95-1.95A1.95,1.95,0,0,1,550.9,383.3Z" transform="translate(-223.646 -292.497)" fill="#fff"/>
        <path id="Path_448" data-name="Path 448" d="M550.9,383.3a1.95,1.95,0,1,1-1.95-1.95A1.95,1.95,0,0,1,550.9,383.3Z" transform="translate(-223.646 -297.497)" fill="#fff"/>
        <path id="Path_449" data-name="Path 449" d="M550.9,383.3a1.95,1.95,0,1,1-1.95-1.95A1.95,1.95,0,0,1,550.9,383.3Z" transform="translate(-223.646 -227.497)" fill="#fff"/>
        <path id="Path_450" data-name="Path 450" d="M550.9,383.3a1.95,1.95,0,1,1-1.95-1.95A1.95,1.95,0,0,1,550.9,383.3Z" transform="translate(-223.646 -232.497)" fill="#fff"/>
      </g>
    </g>
  </g>
</svg>
