<svg xmlns="http://www.w3.org/2000/svg" width="823" height="439.662" viewBox="0 0 823 439.662">
  <g id="Group_1" data-name="Group 1" transform="translate(-569 -275.338)">
    <g id="Sem_título-1" data-name="Sem título-1" transform="translate(798.425 275.338)">
      <path id="Path_1" data-name="Path 1" d="M800.114,422.747a9.925,9.925,0,0,1-9.832-8.836c-.218-1.929-6.067-48.381-50.528-48.381-18.295,0-31.736,7.654-39.919,22.806a67.705,67.705,0,0,0-7.467,25.077,9.909,9.909,0,1,1-19.788-1.089c1.245-23.055,16.894-66.614,67.174-66.614s67.765,43.217,70.223,66.054a9.894,9.894,0,0,1-8.774,10.921A6.4,6.4,0,0,1,800.114,422.747Z" transform="translate(-541.645 -345.71)" fill="#fff"/>
      <path id="Path_2" data-name="Path 2" d="M656.17,388Z" transform="translate(-576.261 -256.422)" fill="#fff"/>
      <path id="Path_3" data-name="Path 3" d="M886.165,373.43H670.829a15.9,15.9,0,0,0-15.743,18.015l3.672,27.286h0c.4,2.769,7.747,44.648,90.229,37.025,0,0-25.326,15.806-29.34,37.865s11.263,34.225,27.1,34.225H869.8a15.931,15.931,0,0,0,15.557-13.566l16.49-122.835a15.9,15.9,0,0,0-15.681-18.015Z" transform="translate(-578.848 -287.184)" fill="#fff"/>
      <path id="Path_4" data-name="Path 4" d="M25.68,42.28h0v0Z" transform="translate(54.198 89.267)" fill="#fff"/>
      <path id="Path_5" data-name="Path 5" d="M25.68,42.28h0v0Z" transform="translate(54.198 89.267)" fill="#fff"/>
      <path id="Path_6" data-name="Path 6" d="M709.8,436.733l34.225-37.958a4.636,4.636,0,0,0-3.423-7.747l-51.026-.5a5.974,5.974,0,0,0-3.951,10.485l8.089,6.969a17.673,17.673,0,0,1,6.223,13.908l-.342,10.672a5.974,5.974,0,0,0,10.205,4.169Z" transform="translate(-518.413 -251.08)" fill="#fff"/>
      <path id="Path_7" data-name="Path 7" d="M685.147,412.591H645.7a9.676,9.676,0,0,1-9.645-9.645h0a9.676,9.676,0,0,1,9.645-9.676h39.452a9.707,9.707,0,0,1,9.676,9.676h0a9.707,9.707,0,0,1-9.676,9.645Z" transform="translate(-618.741 -245.295)" fill="#fff"/>
      <path id="Path_8" data-name="Path 8" d="M699.608,433.942H660.156a9.707,9.707,0,0,1-9.676-9.676h0a9.707,9.707,0,0,1,9.676-9.676h39.452a9.707,9.707,0,0,1,9.676,9.676h0a9.708,9.708,0,0,1-9.676,9.676Z" transform="translate(-588.274 -200.281)" fill="#fff"/>
      <path id="Path_9" data-name="Path 9" d="M729.244,425.269H641.411a10.921,10.921,0,0,1-10.921-10.89h0a10.921,10.921,0,0,1,10.921-10.89h87.864a10.921,10.921,0,0,1,10.89,10.89h0A10.921,10.921,0,0,1,729.244,425.269Z" transform="translate(-630.48 -223.717)" fill="#fff"/>
    </g>
    <text id="FLORESTAMARKET" transform="translate(569 644)" fill="#fff" font-size="74" font-family="Poppins-Bold, Poppins" font-weight="700"><tspan x="0" y="0">FLORESTA</tspan><tspan y="0" font-size="99" font-family="Merriweather-Black, Merriweather" font-weight="800">MARKET</tspan></text>
    <text id="A_REDE_DE_LOJAS_DA_FLORESTA" data-name="A REDE DE LOJAS DA FLORESTA" transform="translate(725 704)" fill="#fff" font-size="31" font-family="Poppins-Regular, Poppins" letter-spacing="0.03em"><tspan x="0" y="0">A REDE DE LOJAS DA FLORESTA</tspan></text>
    <g id="Sem_título-1-2" data-name="Sem título-1" transform="translate(996.016 387)">
      <rect id="Rectangle_1" data-name="Rectangle 1" width="1" height="8.4" transform="translate(26.29 54.99)" fill="#13787b"/>
      <rect id="Rectangle_2" data-name="Rectangle 2" width="1" height="8.4" transform="translate(62.13 54.56)" fill="#13787b"/>
      <path id="Path_10" data-name="Path 10" d="M664.48,425.81l.92-1-.73,1.54c1.2,3.64,2.77,6.81,3.22,6.77s1.58-4,2.07-8.15l-.93-1.33,1,.72c0-.29.05-.57.07-.86l-1.54-2.13,1.6,1.18a15.142,15.142,0,0,0-.41-5,33.3,33.3,0,0,1-.9-3.72l-1.12-1.59.93.68a42.167,42.167,0,0,0-1.1-4.8l-.22-.17.18.06c-.5-1.47-1.15-2.43-2.12-2.34-1.6.14-1.83,2.9-1.89,6.11l.67-.39-.68.77c0,1.59,0,3.27-.13,4.78l1.2-1.26-1.36,3A22.481,22.481,0,0,0,664.48,425.81Z" transform="translate(-637.95 -335.65)" fill="#13787b"/>
      <path id="Path_11" data-name="Path 11" d="M664.43,425.61l2.45-4.11L670,425h0l-.93-1.33,1,.72c0-.29.05-.57.07-.86l-1.54-2.13,1.6,1.18V421.3l-1.91-2.17L666.47,417l-1.42,2.38L663.51,422a31.878,31.878,0,0,0,.92,3.61Z" transform="translate(-637.95 -335.65)" fill="#13787b"/>
      <path id="Path_12" data-name="Path 12" d="M663.37,416.93l1.2-1.26-.49,1.08,2-3.45,3.57,4.09c-.33-1.08-.6-2.31-.85-3.57l-1.12-1.59.93.68-.18-.93-.93-1.06-1.82-2.09-1.42,2.38-.81,1.36C663.48,414,663.47,415.55,663.37,416.93Z" transform="translate(-637.95 -335.65)" fill="#13787b"/>
      <path id="Path_13" data-name="Path 13" d="M666.45,430.91c.65,1.37,1.2,2.25,1.44,2.23s.64-1,1-2.53l-1.36-1.56Z" transform="translate(-637.95 -335.65)" fill="#13787b"/>
      <path id="Path_14" data-name="Path 14" d="M29.85,96.56,26.56,63.3l.55-.05Z" fill="#13787b"/>
      <path id="Path_15" data-name="Path 15" d="M663.92,419.73l-.63-.72.48,1.12c-.95,2.56-2.15,4.78-2.47,4.73s-1-2.89-1.26-5.86l.7-.92-.73.49v-.61l1.15-1.48-1.17.8a10.66,10.66,0,0,1,.42-3.57,24.61,24.61,0,0,0,.74-2.63L662,410l-.69.46a31.816,31.816,0,0,1,.91-3.39l.17-.12h-.14c.4-1,.88-1.7,1.58-1.61,1.13.14,1.22,2.11,1.18,4.4l-.47-.3.47.57c0,1.13-.07,2.33,0,3.4l-.82-.92.89,2.15A15.928,15.928,0,0,1,663.92,419.73Z" transform="translate(-637.95 -335.65)" fill="#13787b"/>
      <path id="Path_16" data-name="Path 16" d="M660.6,422.89c-.14-.64-.27-1.39-.38-2.21l1.87-2,1.31,2.39c-.31.75-.63,1.46-.92,2l-.78-1.41Z" transform="translate(-637.95 -335.65)" fill="#13787b"/>
      <path id="Path_17" data-name="Path 17" d="M661.69,421.8l-1.07,1.2v-.06l1.1-1.17.78,1.41v.05Z" transform="translate(-637.95 -335.65)" fill="#13787b"/>
      <path id="Path_18" data-name="Path 18" d="M663.29,419l.48,1.12c-.11.31-.23.61-.35.91l-.37-.68-.95-1.74-1.36,1.44-.52.57c-.07-.53-.13-1.07-.18-1.63l.7-.92-.73.49v-.38l1.15-1.22,1.35-1.44,1,1.73.81,1.47-.33,1Z" transform="translate(-637.95 -335.65)" fill="#13787b"/>
      <path id="Path_19" data-name="Path 19" d="M660.22,420.68v-.05l.52-.57,1.36-1.44.95,1.74.37.68h0l-1.31-2.39Z" transform="translate(-637.95 -335.65)" fill="#13787b"/>
      <path id="Path_20" data-name="Path 20" d="M660,415.55a7.586,7.586,0,0,1,.36-1.84c.2-.55.37-1.16.54-1.8l2.35-2.5,1.65,3v1l-.82-.92.89,2.15a8.148,8.148,0,0,1-.13,1.5l-2-3.66Z" transform="translate(-637.95 -335.65)" fill="#13787b"/>
      <path id="Path_21" data-name="Path 21" d="M661.93,410.77l1.35-1.44,1,1.73.69,1.27a.27.27,0,0,1,0,.09l-1.65-3-2.35,2.5a.289.289,0,0,1,0-.09Z" transform="translate(-637.95 -335.65)" fill="#13787b"/>
      <path id="Path_22" data-name="Path 22" d="M23.44,88.56l2.81-23.65.39.05Z" fill="#13787b"/>
      <path id="Path_23" data-name="Path 23" d="M646.32,391.17l.87-.85-1.39.7c-3.34-1-6.26-2.41-6.23-2.82s3.63-1.52,7.4-2l1.23.83-.68-.9.79-.08,2,1.37-1.11-1.45a13.719,13.719,0,0,1,4.6.29,31.476,31.476,0,0,0,3.41.76l1.48,1-.64-.84a40.493,40.493,0,0,1,4.4.92l.16.2-.07-.17c1.36.43,2.25,1,2.18,1.9-.1,1.47-2.62,1.72-5.55,1.83l.35-.62-.69.63c-1.45.06-3,.08-4.35.21l1.12-1.12-2.69,1.3a20.619,20.619,0,0,1-6.59-1.09Z" transform="translate(-637.95 -335.65)" fill="#13787b"/>
      <path id="Path_24" data-name="Path 24" d="M647.52,386.09l.68.9-1.23-.83c-.7.1-1.39.22-2.06.34h-.07c-1,.19-2,.42-2.8.64h-.07c-1.43.4-2.39.79-2.4,1s.87.75,2.23,1.34l.14-.08h0l-.14.08h.07a23.806,23.806,0,0,0,2.68,1h.07l1.18.39,1.39-.7-.87.85c.43.13.87.24,1.3.36l1.83-1.14,2.15-1.34-1.94-1.63L648,386Z" transform="translate(-637.95 -335.65)" fill="#13787b"/>
      <path id="Path_25" data-name="Path 25" d="M666.38,389.88l-26-1.62,25.87,2.05Z" transform="translate(-637.95 -335.65)" fill="#13787b"/>
      <path id="Path_26" data-name="Path 26" d="M644.26,380.83l1.17-.65-1.67.34c-3.25-2-6-4.35-5.8-4.78s4.28-.56,8.43,0l1.06,1.23-.46-1.15.85.14,1.7,2-.76-1.84a14.9,14.9,0,0,1,4.79,1.62A34.434,34.434,0,0,0,657,379.5l1.29,1.47-.43-1.07a42.3,42.3,0,0,1,4.39,2.24l.12.25v-.19c1.31.84,2.09,1.71,1.77,2.63-.53,1.52-3.27,1.07-6.4.35l.54-.55-.91.47c-1.55-.36-3.18-.77-4.67-1l1.51-.86-3.23.6a22.49,22.49,0,0,1-6.72-3.01Z" transform="translate(-637.95 -335.65)" fill="#13787b"/>
      <path id="Path_27" data-name="Path 27" d="M647,375.79l.46,1.15-1.06-1.23c-.77-.1-1.54-.17-2.29-.23H644c-1.14-.08-2.22-.12-3.14-.12h-.08c-1.63,0-2.76.15-2.84.38s.71,1.05,2,2.07l.17-.05h0l-.17.05.06.05c.72.58,1.59,1.22,2.54,1.86h.07l1.15.75,1.67-.34-1.17.65c.42.26.85.51,1.28.75l2.26-.68,2.66-.8-1.59-2.28-1.35-1.94Z" transform="translate(-637.95 -335.65)" fill="#13787b"/>
      <path id="Path_28" data-name="Path 28" d="M667.58,385.79l-28.74-9.74,28.57,10.21A3.151,3.151,0,0,0,667.58,385.79Z" transform="translate(-637.95 -335.65)" fill="#13787b"/>
      <path id="Path_29" data-name="Path 29" d="M645.87,370.34l1.39-.42h-1.85c-2.95-2.93-5.26-6-5-6.4s4.64.41,8.9,1.94l.84,1.55-.22-1.32.87.34,1.32,2.53-.37-2.13a16.489,16.489,0,0,1,4.68,2.83,35.343,35.343,0,0,0,3.16,2.67l1,1.86-.21-1.24a47.134,47.134,0,0,1,4.11,3.39l.07.3v-.21c1.19,1.2,1.81,2.29,1.25,3.19-.92,1.49-3.7.37-6.84-1.13l.7-.45-1.07.28c-1.55-.75-3.18-1.56-4.69-2.18l1.79-.56-3.54-.11A24.491,24.491,0,0,1,645.87,370.34Z" transform="translate(-637.95 -335.65)" fill="#13787b"/>
      <path id="Path_30" data-name="Path 30" d="M649.93,365.66l.22,1.32-.84-1.55c-.79-.28-1.58-.55-2.36-.78h-.08c-1.19-.36-2.32-.65-3.29-.86h-.09c-1.72-.37-2.94-.49-3.08-.26s.5,1.27,1.61,2.65h0l.05.07c.62.77,1.39,1.65,2.24,2.55l.07.07,1,1.06h1.85l-1.39.42c.38.37.78.73,1.17,1.08l2.55-.19,3-.22-1.14-2.78-1-2.36Z" transform="translate(-637.95 -335.65)" fill="#13787b"/>
      <path id="Path_31" data-name="Path 31" d="M669.64,381.22,641.26,364l28.19,17.73C669.51,381.57,669.57,381.39,669.64,381.22Z" transform="translate(-637.95 -335.65)" fill="#13787b"/>
      <path id="Path_32" data-name="Path 32" d="M651.27,361.32l1.47-.05-1.8-.5c-2.15-3.62-3.64-7.21-3.28-7.55s4.46,1.58,8.24,4.17l.43,1.73.12-1.35.76.56.65,2.82L658,359a16.37,16.37,0,0,1,3.86,4,39.786,39.786,0,0,0,2.42,3.43l.52,2.07.11-1.26a44.767,44.767,0,0,1,3.17,4.38v.3l.08-.2c.86,1.48,1.18,2.71.41,3.45-1.28,1.22-3.73-.58-6.42-2.85L663,372h-1.13c-1.33-1.12-2.71-2.34-4-3.34l1.9-.08-3.44-1a24.618,24.618,0,0,1-5.06-6.26Z" transform="translate(-637.95 -335.65)" fill="#13787b"/>
      <path id="Path_33" data-name="Path 33" d="M656.45,357.77l-.12,1.35-.43-1.73c-.7-.48-1.42-.94-2.11-1.36h-.08c-1.07-.66-2.1-1.23-3-1.69h-.07c-1.6-.8-2.77-1.22-3-1s.17,1.37.91,3h0v.08c.41.92.94,2,1.55,3.08a.583.583,0,0,0,0,.08c.24.43.49.87.75,1.31l1.8.5-1.47.05c.28.46.57.92.87,1.37l2.55.46,3,.55-.41-3-.35-2.56Z" transform="translate(-637.95 -335.65)" fill="#13787b"/>
      <path id="Path_34" data-name="Path 34" d="M671.8,378.08,648.37,354l23,24.5C671.53,378.33,671.67,378.2,671.8,378.08Z" transform="translate(-637.95 -335.65)" fill="#13787b"/>
      <path id="Path_35" data-name="Path 35" d="M658.79,353.26l1.5.31-1.7-1c-1.28-4.21-1.91-8.22-1.46-8.48s4.14,2.71,7.33,6.28v1.86l.46-1.33c.21.24.43.5.63.75v3l.72-2.17a17.269,17.269,0,0,1,2.94,5,37.7,37.7,0,0,0,1.61,4.08v2.24l.43-1.26a51.658,51.658,0,0,1,2.13,5.23l-.09.31.12-.18c.51,1.71.54,3-.44,3.6-1.59.92-3.63-1.52-5.81-4.49L668,367l-1.14-.27c-1.08-1.48-2.18-3.06-3.28-4.4l2,.39-3.25-1.89a25.83,25.83,0,0,1-3.54-7.57Z" transform="translate(-637.95 -335.65)" fill="#13787b"/>
      <path id="Path_36" data-name="Path 36" d="M664.93,350.94l-.46,1.33v-1.86c-.59-.66-1.2-1.31-1.8-1.91l-.07-.07c-.93-.93-1.83-1.77-2.64-2.45l-.07-.06c-1.42-1.21-2.5-1.93-2.75-1.79s-.17,1.44.17,3.28l.19.08h0l-.19-.08v.08c.19,1,.47,2.25.81,3.52a.287.287,0,0,1,0,.09c.14.5.28,1,.44,1.51l1.7,1-1.5-.31c.17.54.35,1.07.55,1.6l2.47,1.1,2.9,1.3.33-3.17.28-2.69Z" transform="translate(-637.95 -335.65)" fill="#13787b"/>
      <path id="Path_37" data-name="Path 37" d="M675.75,375.78l-18.08-30.72L675.19,376Z" transform="translate(-637.95 -335.65)" fill="#13787b"/>
      <path id="Path_38" data-name="Path 38" d="M668.54,348.25l1.37.69-1.4-1.37c-.15-4.4.29-8.43.79-8.57s3.29,3.69,5.45,8l-.47,1.8.79-1.18.42.9-.82,2.91,1.26-1.91a17.158,17.158,0,0,1,1.54,5.58,40.084,40.084,0,0,0,.5,4.35l-.57,2.17.74-1.1a47.069,47.069,0,0,1,.71,5.6l-.17.28.17-.15c0,1.79-.27,3.08-1.36,3.37-1.78.48-3.12-2.41-4.45-5.84l.88.16-1-.56c-.65-1.7-1.31-3.51-2-5.09l1.79.87L670,356.47a25.859,25.859,0,0,1-1.46-8.22Z" transform="translate(-637.95 -335.65)" fill="#13787b"/>
      <path id="Path_39" data-name="Path 39" d="M675.07,347.59l-.79,1.18.47-1.8c-.4-.8-.82-1.58-1.25-2.31v-.09c-.66-1.14-1.32-2.18-1.92-3.05a.351.351,0,0,0,0-.08c-1.06-1.54-1.92-2.51-2.19-2.44s-.54,1.35-.69,3.21l.16.13h0l-.16-.13v.09c-.08,1.06-.13,2.29-.13,3.61v1.66l1.4,1.37-1.37-.69c0,.56.06,1.13.11,1.69l2.1,1.7,2.47,2,1.14-3,1-2.52Z" transform="translate(-637.95 -335.65)" fill="#13787b"/>
      <path id="Path_40" data-name="Path 40" d="M679,374.15,669.57,340l8.9,34.33Z" transform="translate(-637.95 -335.65)" fill="#13787b"/>
      <path id="Path_41" data-name="Path 41" d="M679,344.76l1.2,1.07-1-1.76c1-4.47,2.57-8.42,3.11-8.42s2.32,4.61,3.35,9.5l-1,1.69,1.11-1c.07.33.13.67.19,1l-1.61,2.71,1.79-1.58a18.29,18.29,0,0,1,.05,6,40.162,40.162,0,0,0-.68,4.53l-1.16,2,1-.91a49.17,49.17,0,0,1-.8,5.84l-.24.23.21-.1c-.44,1.81-1.11,3-2.28,3-1.92,0-2.49-3.27-2.91-7.09l.84.4-.89-.84c-.2-1.9-.38-3.9-.67-5.69l1.56,1.37-1.94-3.4A26.732,26.732,0,0,1,679,344.76Z" transform="translate(-637.95 -335.65)" fill="#13787b"/>
      <path id="Path_42" data-name="Path 42" d="M685.79,345.87l-1.11,1,1-1.69c-.19-.91-.41-1.81-.64-2.67a.287.287,0,0,0,0-.09c-.35-1.33-.73-2.56-1.1-3.6v-.09c-.66-1.84-1.26-3.05-1.56-3.05s-.9,1.21-1.55,3.05l.12.17h0l-.12-.17a.32.32,0,0,0,0,.09c-.37,1-.75,2.27-1.11,3.6a.287.287,0,0,1,0,.09c-.14.52-.27,1-.4,1.59l1,1.76-1.2-1.07c-.13.58-.24,1.16-.35,1.74l1.66,2.28,1.95,2.69,2-2.69,1.66-2.28A1.645,1.645,0,0,1,685.79,345.87Z" transform="translate(-637.95 -335.65)" fill="#13787b"/>
      <path id="Path_43" data-name="Path 43" d="M682.6,373.31l-.3-36.54-.3,36.61C682.2,373.36,682.41,373.32,682.6,373.31Z" transform="translate(-637.95 -335.65)" fill="#13787b"/>
      <path id="Path_44" data-name="Path 44" d="M690.05,346.43l.85,1.28-.53-1.88c2.07-3.88,4.46-7.16,5-7s1,4.84.75,9.62l-1.32,1.32,1.27-.62a4.263,4.263,0,0,1-.08,1l-2.16,2.11,2.05-1a17.43,17.43,0,0,1-1.46,5.61,40.325,40.325,0,0,0-1.75,4l-1.57,1.59,1.19-.59a48.829,48.829,0,0,1-2.19,5.21l-.28.15h.22c-.86,1.57-1.78,2.53-2.86,2.24-1.79-.48-1.5-3.65-.94-7.28l.68.57-.61-1c.28-1.8.61-3.7.79-5.43l1.1,1.66-1-3.63A25.9,25.9,0,0,1,690.05,346.43Z" transform="translate(-637.95 -335.65)" fill="#13787b"/>
      <path id="Path_45" data-name="Path 45" d="M696,349.13l-1.27.62,1.32-1.32c0-.89.07-1.77.07-2.63v-.09a31.168,31.168,0,0,0-.13-3.61.222.222,0,0,0,0-.08c-.14-1.87-.4-3.14-.68-3.21s-1.13.9-2.19,2.43l.07.2h0l-.07-.2a.351.351,0,0,0,0,.08c-.6.87-1.26,1.92-1.92,3.05v.09c-.26.44-.51.9-.76,1.37l.53,1.88-.85-1.28c-.26.5-.51,1-.75,1.52l1,2.53,1.14,3,2.47-2,2.1-1.7A1.926,1.926,0,0,1,696,349.13Z" transform="translate(-637.95 -335.65)" fill="#13787b"/>
      <path id="Path_46" data-name="Path 46" d="M686.31,373.59l8.75-33.75-9.31,33.63a5.583,5.583,0,0,1,.56.12Z" transform="translate(-637.95 -335.65)" fill="#13787b"/>
      <path id="Path_47" data-name="Path 47" d="M700.5,349.75l.48,1.45v-1.95c3-3.22,6.16-5.76,6.61-5.5s-.28,4.93-1.77,9.48l-1.61.94,1.39-.27-.33.93-2.64,1.48,2.24-.46a17.329,17.329,0,0,1-2.85,5,37.729,37.729,0,0,0-2.73,3.43l-1.94,1.13,1.31-.26a49.613,49.613,0,0,1-3.46,4.46l-.32.08h.23c-1.24,1.29-2.37,2-3.35,1.42-1.6-.92-.5-3.91,1-7.28l.51.73-.33-1.12c.74-1.67,1.55-3.42,2.16-5l.65,1.88v-3.75A25.738,25.738,0,0,1,700.5,349.75Z" transform="translate(-637.95 -335.65)" fill="#13787b"/>
      <path id="Path_48" data-name="Path 48" d="M705.58,353.9l-1.39.27,1.61-.94c.28-.84.53-1.69.76-2.51a.241.241,0,0,1,0-.09c.34-1.28.61-2.48.81-3.52v-.08c.34-1.84.43-3.14.17-3.28s-1.33.57-2.75,1.78v.21h0v-.21l-.06.06c-.81.69-1.72,1.53-2.64,2.46l-.07.07c-.36.36-.73.74-1.09,1.13v1.95l-.48-1.45c-.38.41-.75.84-1.12,1.27l.28,2.69.33,3.16,2.91-1.29,2.47-1.1Z" transform="translate(-637.95 -335.65)" fill="#13787b"/>
      <path id="Path_49" data-name="Path 49" d="M689.32,374.79l.49.3L707,344.67Z" transform="translate(-637.95 -335.65)" fill="#13787b"/>
      <path id="Path_50" data-name="Path 50" d="M709.11,356.59l.14,1.46.4-1.83c3.49-2.35,7-4,7.35-3.7s-1.32,4.54-3.69,8.46l-1.71.53h1.36l-.51.79-2.78.82h2.19a16.409,16.409,0,0,1-3.75,4.08,38.9,38.9,0,0,0-3.28,2.61l-2.05.64h1.27a46.79,46.79,0,0,1-4.18,3.41h-.31l.2.06c-1.42.94-2.63,1.34-3.42.6-1.29-1.2.37-3.75,2.49-6.57l.31.79-.07-1.12c1-1.39,2.18-2.84,3.1-4.23l.2,1.9.82-3.5A24.51,24.51,0,0,1,709.11,356.59Z" transform="translate(-637.95 -335.65)" fill="#13787b"/>
      <path id="Path_51" data-name="Path 51" d="M713,361.55h-1.36l1.71-.53c.44-.73.85-1.47,1.24-2.19a.583.583,0,0,0,0-.08c.59-1.11,1.11-2.17,1.51-3.1v-.07c.71-1.64,1.06-2.83.86-3s-1.36.25-3,1.07v.19h0v-.19h-.07c-.9.47-1.93,1.06-3,1.72h-.08l-1.26.82-.4,1.83-.14-1.46c-.44.3-.88.62-1.31.94l-.32,2.57-.37,3,3-.58,2.54-.5Z" transform="translate(-637.95 -335.65)" fill="#13787b"/>
      <path id="Path_52" data-name="Path 52" d="M693.05,377.79l.37.42,22.88-24.95Z" transform="translate(-637.95 -335.65)" fill="#13787b"/>
      <path id="Path_53" data-name="Path 53" d="M715.94,364.59l-.23,1.43.84-1.65c3.92-1.36,7.68-2.09,7.94-1.68s-2.41,4-5.65,7.14l-1.76.08,1.28.38-.69.63-2.85.08,2.07.6a16.429,16.429,0,0,1-4.6,2.95,38.664,38.664,0,0,0-3.79,1.67l-2.11.09,1.2.36a48.4,48.4,0,0,1-4.85,2.2l-.3-.07.18.11c-1.6.54-2.85.61-3.41-.29-.94-1.47,1.29-3.48,4-5.64l.1.84.21-1.09c1.36-1.07,2.8-2.17,4-3.26l-.29,1.86,1.66-3.13A24.461,24.461,0,0,1,715.94,364.59Z" transform="translate(-637.95 -335.65)" fill="#13787b"/>
      <path id="Path_54" data-name="Path 54" d="M718.36,370.29l-1.28-.38,1.76-.08c.6-.58,1.18-1.18,1.73-1.77l.06-.06c.85-.91,1.6-1.8,2.22-2.58l.06-.07c1.09-1.38,1.73-2.43,1.58-2.66s-1.36-.11-3.09.28l-.07.18h0l.07-.18h-.07c-1,.22-2.11.52-3.29.89h-.09c-.46.14-.93.3-1.4.46l-.84,1.65.23-1.43c-.5.18-1,.37-1.49.57l-1,2.37-1.12,2.79,3,.2,2.55.16Z" transform="translate(-637.95 -335.65)" fill="#13787b"/>
      <path id="Path_55" data-name="Path 55" d="M695.32,380.75l.3.46,28-18Z" transform="translate(-637.95 -335.65)" fill="#13787b"/>
      <path id="Path_56" data-name="Path 56" d="M719.16,375l-.52,1.24,1.1-1.3c3.83-.39,7.37-.24,7.52.19s-3,3.08-6.63,5.21l-1.59-.31,1.06.62-.75.42-2.58-.55,1.74,1a14.9,14.9,0,0,1-4.78,1.67,32.622,32.622,0,0,0-3.77.69l-1.91-.38,1,.58a42.876,42.876,0,0,1-4.84.94l-.25-.13.14.14c-1.56.15-2.7-.06-3-1-.52-1.52,1.92-2.85,4.83-4.21l-.08.77.42-.93c1.45-.67,3-1.35,4.32-2.07l-.66,1.61,2.17-2.46A22.44,22.44,0,0,1,719.16,375Z" transform="translate(-637.95 -335.65)" fill="#13787b"/>
      <path id="Path_57" data-name="Path 57" d="M720.1,380.67l-1.06-.62,1.59.31c.67-.39,1.33-.81,2-1.22h.06c1-.64,1.83-1.28,2.56-1.85l.06-.05c1.28-1,2.08-1.81,2-2.05s-1.21-.39-2.84-.41l-.1.15h0l.1-.15h-.08c-.92,0-2,0-3.14.1h-.09l-1.37.12-1.1,1.3.52-1.24c-.49.06-1,.12-1.47.2l-1.36,1.92-1.61,2.27,2.66.82,2.26.7Z" transform="translate(-637.95 -335.65)" fill="#13787b"/>
      <path id="Path_58" data-name="Path 58" d="M697.56,385l.18.46,28.63-10Z" transform="translate(-637.95 -335.65)" fill="#13787b"/>
      <path id="Path_59" data-name="Path 59" d="M718.58,385.22l-.71,1,1.25-.93c3.47.43,6.59,1.28,6.63,1.69s-3.3,2.12-6.93,3.29l-1.36-.6.83.77-.76.22-2.18-1,1.34,1.23a13.561,13.561,0,0,1-4.58.52,31.789,31.789,0,0,0-3.48-.15l-1.63-.72.77.72a39.282,39.282,0,0,1-4.49-.14l-.19-.17.09.16c-1.41-.19-2.39-.6-2.48-1.49-.15-1.46,2.28-2.16,5.15-2.77l-.24.67.57-.75c1.42-.3,2.92-.59,4.26-1l-.92,1.3,2.43-1.75a20.319,20.319,0,0,1,6.63-.1Z" transform="translate(-637.95 -335.65)" fill="#13787b"/>
      <path id="Path_60" data-name="Path 60" d="M718.29,390.43l-.83-.77,1.36.6c.67-.22,1.34-.45,2-.69h.07c1-.37,1.88-.76,2.64-1.12h.06c1.35-.64,2.22-1.19,2.19-1.42s-1-.59-2.43-.94l-.12.11h0l.12-.11h-.07c-.82-.19-1.78-.38-2.82-.54h-.07l-1.24-.17-1.25.93.71-1c-.44-.05-.89-.09-1.34-.12l-1.6,1.43-1.88,1.7,2.19,1.26,1.87,1.07Z" transform="translate(-637.95 -335.65)" fill="#13787b"/>
      <path id="Path_61" data-name="Path 61" d="M699.08,389.56a2.223,2.223,0,0,0,.1.41l25.73-2.91Z" transform="translate(-637.95 -335.65)" fill="#13787b"/>
      <path id="Path_62" data-name="Path 62" d="M682.72,369.22h-.11c-13.34.08-19.14,13.37-19.14,22.71,2.16.25.21-.26,2.86.13,1.39-6.18,6.21-14,16.33-14s15,7.81,16.34,14c2.65-.39.7.12,2.86-.13C701.86,382.59,696.05,369.3,682.72,369.22Z" transform="translate(-637.95 -335.65)" fill="#13787b"/>
      <path id="Path_63" data-name="Path 63" d="M700.17,390.35c-2-6.92-7.51-14.62-17.47-14.62s-15.54,7.7-17.54,14.62h-.07c.61-8.57,6.11-19.5,17.53-19.56h.09c11.41.06,16.92,11,17.53,19.56Z" transform="translate(-637.95 -335.65)" fill="#13787b"/>
      <path id="Path_64" data-name="Path 64" d="M702.86,392.49a2.27,2.27,0,1,1-.711-1.591,2.28,2.28,0,0,1,.711,1.591Z" transform="translate(-637.95 -335.65)" fill="#13787b"/>
      <path id="Path_65" data-name="Path 65" d="M662.46,392.49a2.28,2.28,0,1,0,2.34-2.21,2.28,2.28,0,0,0-2.34,2.21Z" transform="translate(-637.95 -335.65)" fill="#13787b"/>
      <path id="Path_66" data-name="Path 66" d="M702.18,392.51a1.6,1.6,0,1,1-1.64-1.55A1.6,1.6,0,0,1,702.18,392.51Z" transform="translate(-637.95 -335.65)" fill="#13787b"/>
      <path id="Path_67" data-name="Path 67" d="M663.15,392.51a1.59,1.59,0,1,0,1.63-1.55A1.59,1.59,0,0,0,663.15,392.51Z" transform="translate(-637.95 -335.65)" fill="#13787b"/>
      <path id="Path_68" data-name="Path 68" d="M701.37,392.53a.78.78,0,0,1-.76.8.77.77,0,0,1-.8-.75.78.78,0,0,1,1.56-.05Z" transform="translate(-637.95 -335.65)" fill="#13787b"/>
      <path id="Path_69" data-name="Path 69" d="M664,392.53a.78.78,0,0,0,.76.8.77.77,0,0,0,.8-.75.79.79,0,0,0-.76-.81.78.78,0,0,0-.8.76Z" transform="translate(-637.95 -335.65)" fill="#13787b"/>
      <path id="Path_70" data-name="Path 70" d="M699.8,389.19l.37.39a8.423,8.423,0,0,0-.17-1.3l-.81-.84.32-1.56c-.21-.81-.45-1.62-.74-2.42l-2.06-.33c.21.29.41.59.6.89l1.72.28-.41,2A26.582,26.582,0,0,1,699.8,389.19Z" transform="translate(-637.95 -335.65)" fill="#13787b"/>
      <path id="Path_71" data-name="Path 71" d="M696.7,383.12l.67-2.84c-.21-.39-.43-.78-.66-1.16l-2.7.66.19-4c-.3-.31-.61-.62-.93-.92l-2.95,2.05-.3-4.36c-.35-.18-.7-.35-1.06-.51l-3.22,3.2-2.31-4.46h-.89l2.64,5.11.88.14,3.19-3.16.3,4.25c.38.17.74.35,1.1.54l2.78-1.93-.18,3.66c.42.35.82.7,1.2,1.08l2.19-.54-.55,2.37C696.3,382.57,696.51,382.84,696.7,383.12Z" transform="translate(-637.95 -335.65)" fill="#13787b"/>
      <path id="Path_72" data-name="Path 72" d="M665.6,389.19l-.38.39a8.458,8.458,0,0,1,.18-1.3l.81-.84-.32-1.56c.21-.81.45-1.62.74-2.42l2.06-.33c-.21.29-.41.59-.61.89l-1.71.28.41,2a24.667,24.667,0,0,0-1.18,2.89Z" transform="translate(-637.95 -335.65)" fill="#13787b"/>
      <path id="Path_73" data-name="Path 73" d="M668.69,383.12l-.66-2.84c.21-.39.43-.78.66-1.16l2.7.66-.19-4c.29-.31.6-.62.92-.92l3,2.05.31-4.36c.34-.18.7-.35,1.06-.51l3.22,3.2,2.31-4.46h.89l-2.64,5.11-.89.14-3.19-3.16-.3,4.25c-.37.17-.74.35-1.09.54l-2.8-1.92.18,3.66c-.42.35-.82.7-1.21,1.08l-2.19-.54.56,2.37A8.24,8.24,0,0,0,668.69,383.12Z" transform="translate(-637.95 -335.65)" fill="#13787b"/>
      <path id="Path_74" data-name="Path 74" d="M665.44,401.51a1.08,1.08,0,1,1-1.07-1.07A1.08,1.08,0,0,1,665.44,401.51Z" transform="translate(-637.95 -335.65)" fill="#13787b"/>
      <path id="Path_75" data-name="Path 75" d="M666.36,399.32a1.42,1.42,0,1,1-.671-1.328A1.42,1.42,0,0,1,666.36,399.32Z" transform="translate(-637.95 -335.65)" fill="#13787b"/>
      <path id="Path_76" data-name="Path 76" d="M700.84,425.81l-.91-1,.73,1.54c-1.2,3.64-2.77,6.81-3.22,6.77s-1.59-4-2.07-8.15l.93-1.33-1,.72a3.136,3.136,0,0,0-.08-.86l1.55-2.13-1.61,1.18a15.11,15.11,0,0,1,.42-5,35.661,35.661,0,0,0,.9-3.72l1.12-1.59-.94.68a42.02,42.02,0,0,1,1.11-4.8l.22-.17-.19.06c.5-1.47,1.15-2.43,2.13-2.34,1.6.14,1.83,2.9,1.89,6.11l-.68-.39.68.77c0,1.59,0,3.27.13,4.78l-1.19-1.26,1.36,3a22.521,22.521,0,0,1-1.28,7.13Z" transform="translate(-637.95 -335.65)" fill="#13787b"/>
      <path id="Path_77" data-name="Path 77" d="M700.9,425.61l-2.45-4.11-3.08,3.5h0l.93-1.33-1,.72a3.136,3.136,0,0,0-.08-.86l1.55-2.13-1.61,1.18V421.3l1.9-2.17,1.83-2.09,1.42,2.38,1.54,2.59A34.166,34.166,0,0,1,700.9,425.61Z" transform="translate(-637.95 -335.65)" fill="#13787b"/>
      <path id="Path_78" data-name="Path 78" d="M702,416.93l-1.19-1.26.49,1.08-2.06-3.45-3.57,4.09a34.66,34.66,0,0,0,.86-3.57l1.12-1.59-.94.68.18-.93.93-1.06,1.83-2.09,1.42,2.38.81,1.36A35.009,35.009,0,0,0,702,416.93Z" transform="translate(-637.95 -335.65)" fill="#13787b"/>
      <path id="Path_79" data-name="Path 79" d="M698.87,430.91c-.64,1.37-1.19,2.25-1.43,2.23s-.64-1-1-2.53l1.37-1.56Z" transform="translate(-637.95 -335.65)" fill="#13787b"/>
      <path id="Path_80" data-name="Path 80" d="M59.57,96.56,62.86,63.3l-.55-.05Z" fill="#13787b"/>
      <path id="Path_81" data-name="Path 81" d="M701.41,419.73,702,419l-.49,1.12c1,2.56,2.15,4.78,2.47,4.73s1-2.89,1.26-5.86l-.69-.92.73.49v-.61l-1.15-1.48,1.17.8a10.918,10.918,0,0,0-.42-3.57,22.458,22.458,0,0,1-.74-2.63l-.84-1.1.68.46a29.606,29.606,0,0,0-.91-3.39l-.16-.12h.13c-.39-1-.88-1.7-1.57-1.61-1.14.14-1.23,2.11-1.19,4.4l.47-.3-.46.57c0,1.13.07,2.33,0,3.4l.82-.92-.89,2.15a15.927,15.927,0,0,0,1.19,5.12Z" transform="translate(-637.95 -335.65)" fill="#13787b"/>
      <path id="Path_82" data-name="Path 82" d="M704.72,422.89c.14-.64.28-1.39.38-2.21l-1.86-2-1.31,2.39a20.461,20.461,0,0,0,.92,2l.77-1.41Z" transform="translate(-637.95 -335.65)" fill="#13787b"/>
      <path id="Path_83" data-name="Path 83" d="M703.63,421.8l1.08,1.15a.129.129,0,0,0,0-.06l-1.1-1.17-.77,1.41v.05Z" transform="translate(-637.95 -335.65)" fill="#13787b"/>
      <path id="Path_84" data-name="Path 84" d="M702,419l-.49,1.12.36.91.37-.68,1-1.74,1.35,1.44.53.57c.07-.53.13-1.07.17-1.63l-.69-.92.73.49v-.38L704.19,417l-1.36-1.44-1,1.73-.8,1.47c.1.34.21.67.33,1Z" transform="translate(-637.95 -335.65)" fill="#13787b"/>
      <path id="Path_85" data-name="Path 85" d="M705.1,420.68a.07.07,0,0,0,0-.05l-.53-.57-1.35-1.44-1,1.74-.37.68h0l1.31-2.39Z" transform="translate(-637.95 -335.65)" fill="#13787b"/>
      <path id="Path_86" data-name="Path 86" d="M705.31,415.55a8.1,8.1,0,0,0-.36-1.84,18.322,18.322,0,0,1-.54-1.8l-2.36-2.5-1.65,3v1l.82-.92-.89,2.15a8.154,8.154,0,0,0,.13,1.5l2-3.66Z" transform="translate(-637.95 -335.65)" fill="#13787b"/>
      <path id="Path_87" data-name="Path 87" d="M703.4,410.77l-1.4-1.44-.94,1.73-.7,1.27v.09l1.65-3,2.36,2.5a.287.287,0,0,1,0-.09Z" transform="translate(-637.95 -335.65)" fill="#13787b"/>
      <path id="Path_88" data-name="Path 88" d="M65.99,88.56,63.17,64.91l-.38.05Z" fill="#13787b"/>
      <path id="Path_89" data-name="Path 89" d="M699.89,401.51a1.07,1.07,0,1,0,1.07-1.07A1.07,1.07,0,0,0,699.89,401.51Z" transform="translate(-637.95 -335.65)" fill="#13787b"/>
      <path id="Path_90" data-name="Path 90" d="M699,399.32a1.42,1.42,0,1,0,1.42-1.42,1.42,1.42,0,0,0-1.42,1.42Z" transform="translate(-637.95 -335.65)" fill="#13787b"/>
    </g>
  </g>
</svg>
