<svg xmlns="http://www.w3.org/2000/svg" width="474" height="337" viewBox="0 0 474 337">
  <g id="Group_2" data-name="Group 2" transform="translate(-469 -169)">
    <text id="FLORESTACOIN" transform="translate(469 448)" fill="#fff" font-size="56" font-family="Poppins-Bold, Poppins" font-weight="700"><tspan x="0" y="0">FLORESTA</tspan><tspan y="0" font-size="75" font-family="Merriweather-Black, Merriweather" font-weight="800">COIN</tspan></text>
    <text id="A_MOEDA_DA_FLORESTA" data-name="A MOEDA DA FLORESTA" transform="translate(529 495)" fill="#fff" font-size="30" font-family="Poppins-Regular, Poppins" letter-spacing="0.03em"><tspan x="0" y="0">A MOEDA DA FLORESTA</tspan></text>
    <rect id="Rectangle_1" data-name="Rectangle 1" width="6" height="16" rx="3" transform="translate(762 380)" fill="#fff"/>
    <rect id="Rectangle_2" data-name="Rectangle 2" width="6" height="16" rx="3" transform="translate(776 380)" fill="#fff"/>
    <rect id="Rectangle_3" data-name="Rectangle 3" width="6" height="16" rx="3" transform="translate(762 443)" fill="#fff"/>
    <rect id="Rectangle_4" data-name="Rectangle 4" width="6" height="16" rx="3" transform="translate(776 443)" fill="#fff"/>
    <g id="Group_1" data-name="Group 1" transform="translate(33.2 54.2)">
      <g id="Sem_título-1" data-name="Sem título-1" transform="translate(599.124 129.377)">
        <path id="Path_2" data-name="Path 2" d="M674.6,471.959,673.88,400.7l.152.484a1.616,1.616,0,0,0,3.164-.483h17.232l-11.54,21.164a3.3,3.3,0,0,0,6.327,1.3L699.3,399.68h3.675a45.754,45.754,0,0,0-6.272,23.112v49.167Z" transform="translate(-611.755 -285.238)" fill="#fff"/>
        <path id="Path_3" data-name="Path 3" d="M679.78,340.308c-.083-4.573,3.992-8.358,3.992-8.358s4.214,3.633,4.3,8.206-4.3,8.372-4.3,8.372S679.863,344.894,679.78,340.308Z" transform="translate(-609.504 -311.076)" fill="#fff"/>
        <path id="Path_4" data-name="Path 4" d="M669.854,343.147c-1.492-4.338,1.216-9.187,1.216-9.187s5.125,2.155,6.617,6.479-1.492,9.284-1.492,9.284S671.346,347.471,669.854,343.147Z" transform="translate(-613.462 -310.309)" fill="#fff"/>
        <path id="Path_5" data-name="Path 5" d="M661.523,348.7c-2.763-3.661-1.685-9.118-1.685-9.118s5.526.47,8.289,4.144,1.381,9.284,1.381,9.284S664.286,352.359,661.523,348.7Z" transform="translate(-617.191 -308.165)" fill="#fff"/>
        <path id="Path_6" data-name="Path 6" d="M655.577,356.525c-3.744-2.625-4.407-8.151-4.407-8.151s5.415-1.271,9.159,1.382,4.241,8.386,4.241,8.386S659.335,359.15,655.577,356.525Z" transform="translate(-620.418 -304.927)" fill="#fff"/>
        <path id="Path_7" data-name="Path 7" d="M652.4,366.138c-4.379-1.382-6.714-6.4-6.714-6.4s4.766-2.873,9.145-1.533,6.617,6.659,6.617,6.659S656.783,367.464,652.4,366.138Z" transform="translate(-622.509 -301.195)" fill="#fff"/>
        <path id="Path_8" data-name="Path 8" d="M652.2,376.5c-4.573.083-8.289-4.006-8.289-4.006s3.633-4.144,8.22-4.283,8.358,4.283,8.358,4.283S656.785,376.417,652.2,376.5Z" transform="translate(-623.188 -297.244)" fill="#fff"/>
        <path id="Path_9" data-name="Path 9" d="M655.047,386.538c-4.324,1.492-9.187-1.216-9.187-1.216s2.155-5.125,6.479-6.617,9.284,1.492,9.284,1.492S659.371,385.046,655.047,386.538Z" transform="translate(-622.444 -293.399)" fill="#fff"/>
        <path id="Path_10" data-name="Path 10" d="M660.594,395.314c-3.647,2.763-9.1,1.672-9.1,1.672s.47-5.526,4.144-8.289,9.284-1.451,9.284-1.451S664.255,392.551,660.594,395.314Z" transform="translate(-620.296 -290.1)" fill="#fff"/>
        <path id="Path_11" data-name="Path 11" d="M668.423,402.1c-2.625,3.758-8.151,4.421-8.151,4.421s-1.257-5.415,1.381-9.173,8.386-4.241,8.386-4.241S671.062,398.36,668.423,402.1Z" transform="translate(-617.06 -287.745)" fill="#fff"/>
        <path id="Path_18" data-name="Path 18" d="M707.22,397.09c2.763,3.661,1.685,9.118,1.685,9.118s-5.526-.47-8.289-4.144-1.381-9.284-1.381-9.284S704.471,393.443,707.22,397.09Z" transform="translate(-602.214 -287.87)" fill="#fff"/>
        <path id="Path_19" data-name="Path 19" d="M714.013,388.388c3.744,2.625,4.407,8.151,4.407,8.151s-5.415,1.271-9.159-1.381-4.241-8.386-4.241-8.386S710.256,385.777,714.013,388.388Z" transform="translate(-599.876 -290.234)" fill="#fff"/>
        <path id="Path_20" data-name="Path 20" d="M717.839,378.346c4.379,1.382,6.714,6.382,6.714,6.382s-4.766,2.873-9.145,1.533-6.617-6.659-6.617-6.659S713.459,377.006,717.839,378.346Z" transform="translate(-598.437 -293.523)" fill="#fff"/>
        <path id="Path_21" data-name="Path 21" d="M718.266,367.87c4.587-.069,8.372,4.006,8.372,4.006s-3.647,4.144-8.22,4.283-8.358-4.283-8.358-4.283S713.652,367.953,718.266,367.87Z" transform="translate(-597.953 -297.373)" fill="#fff"/>
        <path id="Path_22" data-name="Path 22" d="M715.2,357.944c4.324-1.492,9.187,1.216,9.187,1.216s-2.155,5.139-6.493,6.631-9.27-1.506-9.27-1.506S710.872,359.436,715.2,357.944Z" transform="translate(-598.502 -301.331)" fill="#fff"/>
        <path id="Path_23" data-name="Path 23" d="M709,349.58c3.647-2.763,9.1-1.672,9.1-1.672s-.47,5.526-4.144,8.289-9.284,1.381-9.284,1.381S705.343,352.343,709,349.58Z" transform="translate(-600.005 -305.069)" fill="#fff"/>
        <path id="Path_24" data-name="Path 24" d="M700.3,343.681c2.625-3.758,8.151-4.421,8.151-4.421s1.257,5.415-1.382,9.173-8.385,4.241-8.385,4.241S697.674,347.425,700.3,343.681Z" transform="translate(-602.366 -308.287)" fill="#fff"/>
        <path id="Path_25" data-name="Path 25" d="M690.246,340.5c1.381-4.379,6.382-6.714,6.382-6.714s2.887,4.752,1.547,9.132-6.673,6.631-6.673,6.631S688.906,344.883,690.246,340.5Z" transform="translate(-605.658 -310.374)" fill="#fff"/>
        <path id="Path_26" data-name="Path 26" d="M683.645,372.772c-.166-.152-4.02-3.785-4.144-8.455s3.937-8.469,4.144-8.62l.235-.207.221.193c.18.152,4.338,3.8,4.421,8.468s-4.227,8.468-4.421,8.634l-.221.207Z" transform="translate(-609.612 -302.096)" fill="#fff"/>
        <path id="Path_27" data-name="Path 27" d="M683.96,356.046s4.214,3.633,4.3,8.22-4.3,8.358-4.3,8.358-3.91-3.633-3.992-8.289,3.992-8.289,3.992-8.289m0-.926-.456.428c-.18.152-4.3,4.048-4.214,8.869s4.048,8.551,4.214,8.717l.456.414.47-.4c.18-.166,4.614-4.048,4.531-8.9s-4.352-8.565-4.531-8.731l-.47-.4Z" transform="translate(-609.691 -302.237)" fill="#fff"/>
        <path id="Path_28" data-name="Path 28" d="M683.427,372.669c-.221,0-5.526-.7-8.289-4.435s-1.8-9.159-1.741-9.38v-.3h.3c.235,0,5.733.525,8.552,4.255s1.561,9.339,1.506,9.574v.3Z" transform="translate(-612.018 -300.928)" fill="#fff"/>
        <path id="Path_29" data-name="Path 29" d="M673.843,359.008s5.526.47,8.289,4.144,1.381,9.284,1.381,9.284-5.3-.635-8.054-4.3-1.685-9.118-1.685-9.118m-.553-.732-.124.608c0,.235-1.105,5.8,1.81,9.67s8.289,4.545,8.524,4.573l.622.069.138-.608c0-.235,1.381-5.982-1.561-9.85s-8.551-4.379-8.8-4.393h-.608Z" transform="translate(-612.132 -301.028)" fill="#fff"/>
        <path id="Path_30" data-name="Path 30" d="M677.519,374.333a9.67,9.67,0,0,1-2.763-.4c-4.476-1.381-6.825-6.355-6.907-6.562l-.138-.29.263-.152a14.755,14.755,0,0,1,6.907-1.948,8.719,8.719,0,0,1,2.583.373c4.49,1.382,6.756,6.631,6.907,6.907l.111.29-.262.152A14.962,14.962,0,0,1,677.519,374.333Z" transform="translate(-614.109 -298.476)" fill="#fff"/>
        <path id="Path_31" data-name="Path 31" d="M674.9,365.421a8.207,8.207,0,0,1,2.487.359c4.379,1.382,6.617,6.659,6.617,6.659a14.632,14.632,0,0,1-6.355,1.644,8.994,8.994,0,0,1-2.68-.387c-4.379-1.382-6.728-6.382-6.728-6.382a14.588,14.588,0,0,1,6.659-1.893m0-.691h0a15.2,15.2,0,0,0-7,1.989l-.539.331.263.553c.1.221,2.528,5.346,7.142,6.755a9.8,9.8,0,0,0,2.887.414,15.321,15.321,0,0,0,6.7-1.727l.539-.3-.235-.566c-.1-.235-2.431-5.65-7.073-7.059A8.855,8.855,0,0,0,674.9,364.73Z" transform="translate(-614.242 -298.571)" fill="#fff"/>
        <path id="Path_32" data-name="Path 32" d="M674.542,380.234a14.948,14.948,0,0,1-6.465-1.713l-.276-.152.124-.29c.083-.207,2.266-5.277,6.686-6.811a8.414,8.414,0,0,1,2.763-.428,14.824,14.824,0,0,1,6.907,1.962l.262.166-.124.276c-.1.207-2.362,5-6.783,6.521A9.1,9.1,0,0,1,674.542,380.234Z" transform="translate(-614.074 -296.24)" fill="#fff"/>
        <path id="Path_33" data-name="Path 33" d="M677.4,371.281a14.657,14.657,0,0,1,6.659,1.906s-2.252,4.849-6.576,6.341a8.412,8.412,0,0,1-2.763.456,14.683,14.683,0,0,1-6.369-1.672s2.155-5.125,6.479-6.617a7.9,7.9,0,0,1,2.625-.414m0-.691h0a8.716,8.716,0,0,0-2.846.456c-4.559,1.575-6.8,6.783-6.907,7l-.235.566.539.3a15.293,15.293,0,0,0,6.7,1.754,9.409,9.409,0,0,0,3.039-.483c4.559-1.575,6.907-6.493,6.907-6.714l.263-.553-.525-.318a15.2,15.2,0,0,0-7.018-2.017Z" transform="translate(-614.2 -296.336)" fill="#fff"/>
        <path id="Path_34" data-name="Path 34" d="M673.594,387.819c0-.221-1.271-5.609,1.382-9.449s8.4-4.365,8.634-4.379h.318v.3c0,.221,1.022,5.429-1.644,9.256s-8.164,4.531-8.4,4.559h-.3Z" transform="translate(-611.98 -295.038)" fill="#fff"/>
        <path id="Path_35" data-name="Path 35" d="M683.774,374.427s1.022,5.236-1.6,8.994-8.151,4.407-8.151,4.407-1.257-5.415,1.381-9.159,8.386-4.241,8.386-4.241m.553-.746h-.622c-.249,0-6.106.566-8.883,4.531s-1.52,9.491-1.464,9.67l.138.594.608-.069c.249,0,5.871-.746,8.634-4.711s1.754-9.3,1.713-9.518l-.124-.608Z" transform="translate(-612.075 -295.199)" fill="#fff"/>
        <path id="Path_36" data-name="Path 36" d="M683.937,391.776c-.18-.152-4.324-3.8-4.407-8.468s4.227-8.469,4.407-8.634l.235-.193.221.207c.166.152,4.034,3.785,4.144,8.455s-3.937,8.468-4.144,8.62l-.221.221Z" transform="translate(-609.6 -294.851)" fill="#fff"/>
        <path id="Path_37" data-name="Path 37" d="M684.261,375.046s3.923,3.633,4.006,8.22-4.006,8.358-4.006,8.358-4.145-3.633-4.283-8.289,4.283-8.289,4.283-8.289m0-.926-.47.4c-.193.166-4.614,4.061-4.531,8.9s4.352,8.579,4.531,8.731l.47.4.442-.414c.18-.166,4.31-4.048,4.227-8.883s-4.048-8.551-4.227-8.7l-.442-.428Z" transform="translate(-609.703 -294.989)" fill="#fff"/>
        <path id="Path_38" data-name="Path 38" d="M694.862,387.9c-.235,0-5.733-.525-8.537-4.269s-1.561-9.325-1.506-9.574l.069-.29h.3c.221,0,5.526.7,8.289,4.435s1.782,9.159,1.741,9.394v.3Z" transform="translate(-607.705 -295.122)" fill="#fff"/>
        <path id="Path_39" data-name="Path 39" d="M685.2,374.289s5.3.635,8.068,4.3,1.672,9.118,1.672,9.118-5.526-.47-8.289-4.144-1.451-9.284-1.451-9.284m-.525-.76-.152.608c0,.235-1.382,5.982,1.575,9.85s8.551,4.379,8.786,4.407h.622l.11-.608c0-.235,1.105-5.8-1.8-9.67s-8.289-4.545-8.538-4.573l-.608-.069Z" transform="translate(-607.819 -295.241)" fill="#fff"/>
        <path id="Path_40" data-name="Path 40" d="M695.385,380.194a9.188,9.188,0,0,1-2.583-.359c-4.476-1.382-6.742-6.645-6.907-6.907l-.124-.29.276-.152a14.893,14.893,0,0,1,6.534-1.685,9.506,9.506,0,0,1,2.763.4c4.476,1.382,6.908,6.355,6.908,6.562l.124.29-.263.152A14.754,14.754,0,0,1,695.385,380.194Z" transform="translate(-607.219 -296.255)" fill="#fff"/>
        <path id="Path_41" data-name="Path 41" d="M692.753,371.271a9.119,9.119,0,0,1,2.68.387c4.379,1.381,6.714,6.382,6.714,6.382a14.589,14.589,0,0,1-6.659,1.893,8.482,8.482,0,0,1-2.473-.345c-4.379-1.381-6.631-6.672-6.631-6.672a14.725,14.725,0,0,1,6.369-1.644m0-.691h0a15.03,15.03,0,0,0-6.7,1.741l-.553.29.249.58c.1.221,2.431,5.636,7.059,7.046a8.911,8.911,0,0,0,2.68.387,15.2,15.2,0,0,0,7.018-1.989l.525-.318-.263-.566c-.1-.221-2.514-5.346-7.142-6.755a9.672,9.672,0,0,0-2.874-.414Z" transform="translate(-607.322 -296.339)" fill="#fff"/>
        <path id="Path_42" data-name="Path 42" d="M692.851,374.334a14.74,14.74,0,0,1-6.825-1.962l-.276-.152.138-.29c.1-.193,2.362-5,6.769-6.521a9.186,9.186,0,0,1,2.943-.47,14.947,14.947,0,0,1,6.534,1.713l.262.152-.11.29c-.1.207-2.279,5.291-6.7,6.811a8.287,8.287,0,0,1-2.735.428Z" transform="translate(-607.227 -298.491)" fill="#fff"/>
        <path id="Path_43" data-name="Path 43" d="M695.722,365.381a14.671,14.671,0,0,1,6.355,1.672s-2.155,5.125-6.479,6.617a7.9,7.9,0,0,1-2.625.414,14.727,14.727,0,0,1-6.659-1.907s2.252-4.849,6.576-6.341a8.853,8.853,0,0,1,2.763-.456m0-.691h0a9.133,9.133,0,0,0-3.053.5c-4.545,1.561-6.907,6.493-6.907,6.7l-.262.553.539.332a15.2,15.2,0,0,0,7,2,8.589,8.589,0,0,0,2.846-.456c4.573-1.561,6.811-6.783,6.907-7l.235-.566-.539-.3a15.374,15.374,0,0,0-6.7-1.754Z" transform="translate(-607.349 -298.586)" fill="#fff"/>
        <path id="Path_44" data-name="Path 44" d="M684.553,372.255c0-.207-1.022-5.429,1.658-9.256s8.151-4.531,8.386-4.559h.3v.29c0,.235,1.271,5.609-1.381,9.449s-8.386,4.365-8.634,4.393h-.3Z" transform="translate(-607.756 -300.97)" fill="#fff"/>
        <path id="Path_45" data-name="Path 45" d="M694.745,358.9s1.271,5.415-1.381,9.173-8.386,4.241-8.386,4.241-1.036-5.25,1.589-8.993,8.151-4.421,8.151-4.421m.539-.76-.622.069c-.235,0-5.857.746-8.634,4.711s-1.741,9.3-1.7,9.518l.124.608h.608c.249,0,6.12-.553,8.9-4.531s1.52-9.491,1.464-9.67l-.138-.608Z" transform="translate(-607.864 -301.085)" fill="#fff"/>
        <path id="Path_46" data-name="Path 46" d="M676.408,352.255c-.594-4.531,3.039-8.745,3.039-8.745s4.586,3.15,5.18,7.681-3.343,8.786-3.343,8.786S676.988,356.8,676.408,352.255Z" transform="translate(-610.815 -306.666)" fill="#fff"/>
        <path id="Path_47" data-name="Path 47" d="M670.3,355.43c-1.962-4.144.193-9.27.193-9.27s5.332,1.575,7.294,5.719-.456,9.38-.456,9.38S672.259,359.56,670.3,355.43Z" transform="translate(-613.436 -305.655)" fill="#fff"/>
        <path id="Path_48" data-name="Path 48" d="M665.747,360.153c-3.15-3.329-2.68-8.883-2.68-8.883s5.526-.138,8.7,3.191,2.459,9.062,2.459,9.062S668.883,363.469,665.747,360.153Z" transform="translate(-615.889 -303.706)" fill="#fff"/>
        <path id="Path_49" data-name="Path 49" d="M663.131,366.152c-4.02-2.183-5.291-7.6-5.291-7.6s5.25-1.865,9.256.332,5.153,7.861,5.153,7.861S667.151,368.349,663.131,366.152Z" transform="translate(-617.874 -301.209)" fill="#fff"/>
        <path id="Path_50" data-name="Path 50" d="M662.437,373.028c-4.49-.843-7.377-5.595-7.377-5.595s4.407-3.4,8.911-2.556,7.322,5.9,7.322,5.9S666.941,373.871,662.437,373.028Z" transform="translate(-618.934 -298.566)" fill="#fff"/>
        <path id="Path_51" data-name="Path 51" d="M663.749,379.967c-4.545.594-8.759-3.039-8.759-3.039s3.15-4.587,7.695-5.181,8.786,3.343,8.786,3.343S668.28,379.386,663.749,379.967Z" transform="translate(-618.961 -295.917)" fill="#fff"/>
        <path id="Path_52" data-name="Path 52" d="M666.906,386.28c-4.145,1.962-9.256-.193-9.256-.193s1.575-5.333,5.706-7.294,9.394.456,9.394.456S671.05,384.318,666.906,386.28Z" transform="translate(-617.946 -293.499)" fill="#fff"/>
        <path id="Path_53" data-name="Path 53" d="M671.629,391.432c-3.329,3.136-8.869,2.68-8.869,2.68s-.152-5.526,3.177-8.7,9.076-2.459,9.076-2.459S674.959,388.282,671.629,391.432Z" transform="translate(-615.997 -291.647)" fill="#fff"/>
        <path id="Path_54" data-name="Path 54" d="M677.644,394.918c-2.2,4.02-7.612,5.291-7.612,5.291s-1.851-5.25.332-9.27,7.874-5.139,7.874-5.139S679.841,390.9,677.644,394.918Z" transform="translate(-613.502 -290.533)" fill="#fff"/>
        <path id="Path_55" data-name="Path 55" d="M684.518,396.115c-.843,4.49-5.609,7.377-5.609,7.377s-3.385-4.421-2.542-8.911,5.885-7.322,5.885-7.322S685.361,391.612,684.518,396.115Z" transform="translate(-610.857 -289.976)" fill="#fff"/>
        <path id="Path_56" data-name="Path 56" d="M691.456,394.872c.58,4.545-3.053,8.759-3.053,8.759s-4.587-3.15-5.167-7.695,3.343-8.786,3.343-8.786S690.862,390.327,691.456,394.872Z" transform="translate(-608.208 -290.018)" fill="#fff"/>
        <path id="Path_57" data-name="Path 57" d="M697.759,391.334c1.962,4.144-.194,9.256-.194,9.256s-5.333-1.575-7.294-5.706.47-9.394.47-9.394S695.8,387.189,697.759,391.334Z" transform="translate(-605.794 -290.651)" fill="#fff"/>
        <path id="Path_58" data-name="Path 58" d="M702.925,385.825c3.136,3.329,2.666,8.869,2.666,8.869s-5.526.152-8.7-3.177-2.459-9.076-2.459-9.076S699.776,382.5,702.925,385.825Z" transform="translate(-603.942 -291.815)" fill="#fff"/>
        <path id="Path_59" data-name="Path 59" d="M706.408,379.05c4.006,2.2,5.277,7.612,5.277,7.612s-5.236,1.851-9.256-.345-5.139-7.861-5.139-7.861S702.415,376.853,706.408,379.05Z" transform="translate(-602.824 -293.55)" fill="#fff"/>
        <path id="Path_60" data-name="Path 60" d="M707.6,371.88c4.5.843,7.377,5.609,7.377,5.609s-4.407,3.385-8.911,2.542-7.322-5.9-7.322-5.9S703.092,371.038,707.6,371.88Z" transform="translate(-602.271 -295.899)" fill="#fff"/>
        <path id="Path_61" data-name="Path 61" d="M706.362,364.917c4.531-.58,8.745,3.053,8.745,3.053s-3.15,4.587-7.681,5.167-8.786-3.343-8.786-3.343S701.817,365.5,706.362,364.917Z" transform="translate(-602.31 -298.523)" fill="#fff"/>
        <path id="Path_62" data-name="Path 62" d="M702.81,358.805c4.144-1.948,9.27.207,9.27.207s-1.575,5.332-5.719,7.294-9.38-.47-9.38-.47S698.679,360.767,702.81,358.805Z" transform="translate(-602.943 -301.142)" fill="#fff"/>
        <path id="Path_63" data-name="Path 63" d="M697.3,354.256c3.329-3.136,8.883-2.68,8.883-2.68s.138,5.526-3.191,8.717-9.062,2.459-9.062,2.459S694.027,357.406,697.3,354.256Z" transform="translate(-604.106 -303.598)" fill="#fff"/>
        <path id="Path_64" data-name="Path 64" d="M690.527,351.641c2.2-4.02,7.612-5.291,7.612-5.291s1.865,5.25-.331,9.27-7.861,5.139-7.861,5.139S688.344,355.661,690.527,351.641Z" transform="translate(-605.842 -305.583)" fill="#fff"/>
        <path id="Path_65" data-name="Path 65" d="M683.371,350.961c.843-4.5,5.526-7.391,5.526-7.391s3.4,4.421,2.542,8.911-5.885,7.322-5.885,7.322S682.528,355.451,683.371,350.961Z" transform="translate(-608.191 -306.643)" fill="#fff"/>
        <path id="Path_66" data-name="Path 66" d="M673.238,331.755c-.594-4.531,3.053-8.745,3.053-8.745s4.587,3.15,5.167,7.681-3.343,8.786-3.343,8.786S673.818,336.3,673.238,331.755Z" transform="translate(-612.025 -314.486)" fill="#fff"/>
        <path id="Path_67" data-name="Path 67" d="M660.948,336.91c-1.962-4.144.193-9.27.193-9.27s5.346,1.575,7.308,5.719-.47,9.38-.47,9.38S662.909,341.04,660.948,336.91Z" transform="translate(-617.003 -312.72)" fill="#fff"/>
        <path id="Path_68" data-name="Path 68" d="M651.137,345.449c-3.15-3.329-2.68-8.869-2.68-8.869s5.526-.152,8.7,3.177,2.459,9.076,2.459,9.076S654.273,348.737,651.137,345.449Z" transform="translate(-621.463 -309.31)" fill="#fff"/>
        <path id="Path_69" data-name="Path 69" d="M644.681,356.676c-4.02-2.2-5.291-7.612-5.291-7.612s5.25-1.865,9.27.332,5.139,7.861,5.139,7.861S648.7,358.928,644.681,356.676Z" transform="translate(-624.912 -304.829)" fill="#fff"/>
        <path id="Path_70" data-name="Path 70" d="M641.971,369.708c-4.5-.843-7.391-5.609-7.391-5.609s4.421-3.385,8.924-2.542,7.322,5.9,7.322,5.9S646.461,370.509,641.971,369.708Z" transform="translate(-626.747 -299.833)" fill="#fff"/>
        <path id="Path_71" data-name="Path 71" d="M643.249,383.136c-4.545.58-8.759-3.053-8.759-3.053s3.15-4.587,7.695-5.167,8.786,3.343,8.786,3.343S647.78,382.542,643.249,383.136Z" transform="translate(-626.781 -294.707)" fill="#fff"/>
        <path id="Path_72" data-name="Path 72" d="M648.4,395.619c-4.144,1.962-9.27-.193-9.27-.193s1.575-5.332,5.706-7.294,9.394.47,9.394.47S652.53,393.657,648.4,395.619Z" transform="translate(-625.011 -289.936)" fill="#fff"/>
        <path id="Path_73" data-name="Path 73" d="M656.909,406.042c-3.329,3.15-8.869,2.68-8.869,2.68s-.152-5.526,3.177-8.7,9.063-2.459,9.063-2.459S660.239,402.906,656.909,406.042Z" transform="translate(-621.613 -286.074)" fill="#fff"/>
        <path id="Path_74" data-name="Path 74" d="M668.153,413.368c-2.2,4.006-7.612,5.277-7.612,5.277s-1.851-5.236.345-9.256,7.861-5.139,7.861-5.139S670.35,409.348,668.153,413.368Z" transform="translate(-617.121 -283.495)" fill="#fff"/>
        <path id="Path_75" data-name="Path 75" d="M707.11,409.84c1.962,4.144-.193,9.27-.193,9.27s-5.332-1.575-7.294-5.719.456-9.38.456-9.38S705.148,405.709,707.11,409.84Z" transform="translate(-602.228 -283.586)" fill="#fff"/>
        <path id="Path_76" data-name="Path 76" d="M717.536,400.541c3.136,3.329,2.68,8.869,2.68,8.869s-5.526.152-8.717-3.177-2.459-9.062-2.459-9.062S714.386,397.211,717.536,400.541Z" transform="translate(-598.37 -286.196)" fill="#fff"/>
        <path id="Path_77" data-name="Path 77" d="M724.848,388.54c4.02,2.183,5.291,7.6,5.291,7.6s-5.236,1.865-9.256-.332-5.153-7.861-5.153-7.861S720.828,386.343,724.848,388.54Z" transform="translate(-595.79 -289.93)" fill="#fff"/>
        <path id="Path_78" data-name="Path 78" d="M728.075,375.2c4.49.856,7.377,5.609,7.377,5.609s-4.407,3.385-8.91,2.542-7.322-5.885-7.322-5.885S723.572,374.357,728.075,375.2Z" transform="translate(-594.459 -294.632)" fill="#fff"/>
        <path id="Path_79" data-name="Path 79" d="M726.862,361.747c4.531-.58,8.745,3.053,8.745,3.053s-3.15,4.587-7.681,5.167-8.786-3.329-8.786-3.329S722.317,362.341,726.862,361.747Z" transform="translate(-594.489 -299.733)" fill="#fff"/>
        <path id="Path_80" data-name="Path 80" d="M721.33,349.468c4.144-1.962,9.27.193,9.27.193s-1.589,5.333-5.719,7.294-9.38-.456-9.38-.456S717.2,351.429,721.33,349.468Z" transform="translate(-595.878 -304.708)" fill="#fff"/>
        <path id="Path_81" data-name="Path 81" d="M712.035,339.646c3.329-3.136,8.869-2.68,8.869-2.68s.152,5.526-3.177,8.7-9.076,2.473-9.076,2.473S708.705,342.8,712.035,339.646Z" transform="translate(-598.491 -309.171)" fill="#fff"/>
        <path id="Path_82" data-name="Path 82" d="M700.02,333.2c2.2-4.02,7.612-5.291,7.612-5.291s1.865,5.236-.331,9.256-7.874,5.139-7.874,5.139S697.823,337.207,700.02,333.2Z" transform="translate(-602.225 -312.617)" fill="#fff"/>
        <path id="Path_83" data-name="Path 83" d="M686.694,330.477c.843-4.49,5.609-7.377,5.609-7.377s3.385,4.407,2.542,8.911-5.9,7.322-5.9,7.322S685.8,334.981,686.694,330.477Z" transform="translate(-606.928 -314.452)" fill="#fff"/>
        <path id="Path_84" data-name="Path 84" d="M679.78,325.129c-.083-4.573,3.992-8.289,3.992-8.289s4.214,3.633,4.3,8.22-4.3,8.358-4.3,8.358S679.863,329.715,679.78,325.129Z" transform="translate(-609.504 -316.84)" fill="#fff"/>
        <path id="Path_85" data-name="Path 85" d="M665.3,328.587c-1.492-4.324,1.216-9.187,1.216-9.187s5.125,2.169,6.617,6.493-1.492,9.284-1.492,9.284S666.8,332.925,665.3,328.587Z" transform="translate(-615.198 -315.863)" fill="#fff"/>
        <path id="Path_86" data-name="Path 86" d="M652.8,336.138c-2.763-3.661-1.672-9.118-1.672-9.118s5.526.47,8.289,4.144,1.381,9.284,1.381,9.284S655.563,339.785,652.8,336.138Z" transform="translate(-620.515 -312.957)" fill="#fff"/>
        <path id="Path_87" data-name="Path 87" d="M643.581,347.135c-3.758-2.625-4.421-8.151-4.421-8.151s5.415-1.271,9.173,1.381,4.241,8.386,4.241,8.386S647.325,349.76,643.581,347.135Z" transform="translate(-625 -308.509)" fill="#fff"/>
        <path id="Path_88" data-name="Path 88" d="M638.224,360.788c-4.379-1.381-6.714-6.4-6.714-6.4s4.766-2.873,9.145-1.533,6.617,6.659,6.617,6.659S642.6,362.114,638.224,360.788Z" transform="translate(-627.918 -303.236)" fill="#fff"/>
        <path id="Path_89" data-name="Path 89" d="M637.2,375.655c-4.573.083-8.289-3.992-8.289-3.992s3.633-4.214,8.22-4.283,8.358,4.283,8.358,4.283S641.785,375.586,637.2,375.655Z" transform="translate(-628.91 -297.56)" fill="#fff"/>
        <path id="Path_90" data-name="Path 90" d="M640.657,390.278c-4.324,1.492-9.187-1.216-9.187-1.216s2.169-5.125,6.493-6.617,9.283,1.506,9.283,1.506S644.995,388.758,640.657,390.278Z" transform="translate(-627.933 -291.972)" fill="#fff"/>
        <path id="Path_91" data-name="Path 91" d="M648.208,403.188c-3.661,2.763-9.118,1.685-9.118,1.685s.47-5.526,4.144-8.289,9.27-1.506,9.27-1.506S651.855,400.425,648.208,403.188Z" transform="translate(-625.027 -287.102)" fill="#fff"/>
        <path id="Path_92" data-name="Path 92" d="M659.2,413.273c-2.625,3.758-8.151,4.421-8.151,4.421s-1.271-5.415,1.381-9.173,8.386-4.241,8.386-4.241S661.83,409.53,659.2,413.273Z" transform="translate(-620.579 -283.483)" fill="#fff"/>
        <path id="Path_93" data-name="Path 93" d="M672.858,419.279c-1.381,4.379-6.4,6.714-6.4,6.714s-2.874-4.752-1.534-9.132,6.659-6.631,6.659-6.631S674.184,414.9,672.858,419.279Z" transform="translate(-615.306 -281.214)" fill="#fff"/>
        <path id="Path_94" data-name="Path 94" d="M702.278,416.816c1.492,4.324-1.216,9.187-1.216,9.187s-5.125-2.155-6.617-6.493,1.506-9.27,1.506-9.27S700.9,412.533,702.278,416.816Z" transform="translate(-604.069 -281.21)" fill="#fff"/>
        <path id="Path_95" data-name="Path 95" d="M715.24,408.654c2.763,3.661,1.685,9.118,1.685,9.118s-5.526-.47-8.289-4.144-1.381-9.3-1.381-9.3S712.477,405.007,715.24,408.654Z" transform="translate(-599.155 -283.464)" fill="#fff"/>
        <path id="Path_96" data-name="Path 96" d="M725.343,396.779c3.758,2.625,4.421,8.151,4.421,8.151s-5.416,1.271-9.173-1.381-4.241-8.386-4.241-8.386S721.6,394.154,725.343,396.779Z" transform="translate(-595.553 -287.034)" fill="#fff"/>
        <path id="Path_97" data-name="Path 97" d="M731.349,382.7c4.379,1.381,6.714,6.382,6.714,6.382s-4.752,2.873-9.131,1.533-6.631-6.659-6.631-6.659S726.969,381.356,731.349,382.7Z" transform="translate(-593.284 -291.864)" fill="#fff"/>
        <path id="Path_98" data-name="Path 98" d="M732.58,367.71c4.573-.083,8.358,3.992,8.358,3.992s-3.633,4.144-8.289,4.3-8.289-4.3-8.289-4.3S728.007,367.793,732.58,367.71Z" transform="translate(-592.498 -297.435)" fill="#fff"/>
        <path id="Path_99" data-name="Path 99" d="M728.916,353.234c4.324-1.492,9.187,1.216,9.187,1.216s-2.155,5.125-6.493,6.617-9.27-1.492-9.27-1.492S724.633,354.726,728.916,353.234Z" transform="translate(-593.268 -303.128)" fill="#fff"/>
        <path id="Path_100" data-name="Path 100" d="M720.724,340.73c3.661-2.763,9.118-1.672,9.118-1.672s-.47,5.526-4.144,8.289-9.3,1.451-9.3,1.451S717.077,343.493,720.724,340.73Z" transform="translate(-595.534 -308.445)" fill="#fff"/>
        <path id="Path_101" data-name="Path 101" d="M708.849,331.511c2.625-3.758,8.151-4.421,8.151-4.421s1.271,5.415-1.381,9.173-8.386,4.241-8.386,4.241S706.224,335.255,708.849,331.511Z" transform="translate(-599.104 -312.93)" fill="#fff"/>
        <path id="Path_102" data-name="Path 102" d="M694.766,326.154c1.381-4.379,6.383-6.714,6.383-6.714s2.873,4.766,1.533,9.145-6.659,6.617-6.659,6.617S693.426,330.533,694.766,326.154Z" transform="translate(-603.934 -315.848)" fill="#fff"/>
      </g>
      <text id="_" data-name="$" transform="translate(637.8 234.8)" fill="#103100" font-size="113" font-family="Poppins-Bold, Poppins" font-weight="700" letter-spacing="0.03em"><tspan x="0" y="0">$</tspan></text>
      <g id="Path_103" data-name="Path 103" transform="translate(569.8 114.8)" fill="none">
        <path d="M103,0A103,103,0,1,1,0,103,103,103,0,0,1,103,0Z" stroke="none"/>
        <path d="M 103 10 C 51.71965026855469 10 10 51.71965026855469 10 103 C 10 154.2803649902344 51.71965026855469 196 103 196 C 154.2803649902344 196 196 154.2803649902344 196 103 C 196 51.71965026855469 154.2803649902344 10 103 10 M 103 0 C 159.8853149414062 0 206 46.11468505859375 206 103 C 206 159.8853149414062 159.8853149414062 206 103 206 C 46.11468505859375 206 0 159.8853149414062 0 103 C 0 46.11468505859375 46.11468505859375 0 103 0 Z" stroke="none" fill="#fff"/>
      </g>
    </g>
  </g>
</svg>
