<svg xmlns="http://www.w3.org/2000/svg" width="258.866" height="269.604" viewBox="0 0 258.866 269.604"><defs><style>.a{fill:#e2e2e2;}.b{fill:#003d50;}.c{fill:#552565;}.d{fill:#287e7e;}.e{fill:#9bc4ca;}.f,.h{fill:#fff;}.f,.i{font-size:74.166px;font-family:Montserrat-Bold, Montserrat;font-weight:700;}.g,.i{fill:#006686;}</style></defs><g transform="translate(-340.533 -1484.692)"><path class="a" d="M480.569,1504.28A109.979,109.979,0,1,1,370.59,1614.26,110.106,110.106,0,0,1,480.569,1504.28Zm0,208.108a98.128,98.128,0,1,0-98.128-98.128A98.239,98.239,0,0,0,480.569,1712.388Z"/><path class="b" d="M480.569,1495.431A118.964,118.964,0,0,1,599.4,1614.26h-9.116a109.713,109.713,0,1,0-109.714,109.712v9.117a118.829,118.829,0,0,1,0-237.658Z"/><path class="c" d="M480.569,1484.692v9.116a120.452,120.452,0,0,0,0,240.9v9.116a129.568,129.568,0,0,1,0-259.135Z"/><path class="d" d="M340.533,1614.26h9.117c0,72.189,58.731,130.92,130.919,130.92v9.116C403.353,1754.3,340.533,1691.476,340.533,1614.26Z"/><circle class="e" cx="60.824" cy="60.824" r="60.824" transform="translate(417.496 1552.792)"/><text class="f" transform="translate(516.406 1639.135)"><tspan x="-65.043" y="0">%</tspan></text><path class="a" d="M480.569,1504.28A109.979,109.979,0,1,1,370.59,1614.26,110.106,110.106,0,0,1,480.569,1504.28Zm0,208.108a98.128,98.128,0,1,0-98.128-98.128A98.239,98.239,0,0,0,480.569,1712.388Z"/><path class="b" d="M480.569,1495.431A118.964,118.964,0,0,1,599.4,1614.26h-9.116a109.713,109.713,0,1,0-109.714,109.712v9.117a118.829,118.829,0,0,1,0-237.658Z"/><path class="g" d="M480.569,1484.692v9.116a120.452,120.452,0,0,0,0,240.9v9.116a129.568,129.568,0,0,1,0-259.135Z"/><path class="d" d="M340.533,1614.26h9.117c0,72.189,58.731,130.92,130.919,130.92v9.116C403.353,1754.3,340.533,1691.476,340.533,1614.26Z"/><circle class="h" cx="60.824" cy="60.824" r="60.824" transform="translate(417.496 1552.792)"/><text class="i" transform="translate(516.406 1639.135)"><tspan x="-65.043" y="0">%</tspan></text></g></svg>