<svg xmlns="http://www.w3.org/2000/svg" width="281.891" height="227.403" viewBox="0 0 281.891 227.403"><defs><style>.a{fill:#e6e6e6;}.b{fill:#c9c9c9;}.c{fill:#c3dcdf;}.d{fill:#9bc4ca;}.e{fill:#287e7e;}.f{fill:#1f6a6a;}.g{fill:#006686;}.h{fill:#004f69;}.i{fill:#003d50;}.j{fill:#002936;}.k{fill:#959595;}.l{fill:#666;}.m{fill:#7e7e7e;}</style></defs><g transform="translate(-1309.098 -1452.743)"><rect class="a" width="12.734" height="55.711" transform="translate(1347.736 1594.86)"/><rect class="b" width="12.734" height="89.429" transform="translate(1360.469 1561.142)"/><rect class="c" width="12.734" height="82.714" transform="translate(1399.715 1567.935)"/><rect class="d" width="12.734" height="116.511" transform="translate(1412.449 1534.139)"/><rect class="e" width="12.734" height="112.572" transform="translate(1453.114 1538.077)"/><rect class="f" width="12.734" height="146.369" transform="translate(1465.848 1504.281)"/><rect class="g" width="12.734" height="139.201" transform="translate(1507.013 1511.449)"/><rect class="h" width="12.734" height="172.998" transform="translate(1519.747 1477.652)"/><rect class="i" width="12.734" height="164.11" transform="translate(1558.421 1486.539)"/><rect class="j" width="12.734" height="197.907" transform="translate(1571.155 1452.743)"/><path class="k" d="M1590.989,1660.618h-259.61V1462.226h.9v197.49h258.708Z"/><rect class="l" width="12.179" height="0.902" transform="translate(1319.651 1659.716)"/><path class="m" d="M1315.429,1661.1c0,1.947-.723,3.022-1.991,3.022-1.119,0-1.877-1.049-1.9-2.943,0-1.921.829-2.978,1.992-2.978C1314.742,1658.2,1315.429,1659.276,1315.429,1661.1Zm-3.11.088c0,1.489.458,2.335,1.163,2.335.793,0,1.172-.926,1.172-2.388,0-1.41-.362-2.335-1.164-2.335C1312.812,1658.8,1312.319,1659.628,1312.319,1661.188Z"/><path class="m" d="M1309.362,1625.233v-.476l.608-.59c1.463-1.392,2.124-2.132,2.132-3a1.022,1.022,0,0,0-1.136-1.119,1.946,1.946,0,0,0-1.216.485l-.247-.547a2.519,2.519,0,0,1,1.621-.581,1.612,1.612,0,0,1,1.754,1.665c0,1.057-.767,1.912-1.974,3.075l-.458.423v.018h2.573v.643Z"/><path class="m" d="M1317.688,1622.308c0,1.947-.722,3.022-1.991,3.022-1.119,0-1.876-1.049-1.894-2.943,0-1.921.828-2.978,1.991-2.978C1317,1619.409,1317.688,1620.484,1317.688,1622.308Zm-3.11.088c0,1.489.458,2.335,1.163,2.335.793,0,1.172-.925,1.172-2.388,0-1.41-.361-2.335-1.163-2.335C1315.072,1620.008,1314.578,1620.836,1314.578,1622.4Z"/><path class="m" d="M1309.547,1584.636a2.6,2.6,0,0,0,1.269.362c1,0,1.3-.635,1.295-1.111-.009-.8-.731-1.145-1.48-1.145h-.432v-.581h.432c.564,0,1.278-.291,1.278-.97,0-.458-.291-.863-1.005-.863a2.1,2.1,0,0,0-1.145.379l-.2-.564a2.726,2.726,0,0,1,1.5-.441c1.128,0,1.639.67,1.639,1.366a1.423,1.423,0,0,1-1.058,1.348v.018a1.492,1.492,0,0,1,1.278,1.471c0,.916-.714,1.718-2.088,1.718a2.912,2.912,0,0,1-1.489-.387Z"/><path class="m" d="M1317.688,1582.6c0,1.947-.722,3.022-1.991,3.022-1.119,0-1.876-1.048-1.894-2.943,0-1.92.828-2.978,1.991-2.978C1317,1579.7,1317.688,1580.777,1317.688,1582.6Zm-3.11.088c0,1.489.458,2.335,1.163,2.335.793,0,1.172-.925,1.172-2.388,0-1.409-.361-2.334-1.163-2.334C1315.072,1580.3,1314.578,1581.13,1314.578,1582.689Z"/><path class="m" d="M1311.759,1545.821v-1.559H1309.1v-.511l2.555-3.657h.837v3.56h.8v.608h-.8v1.559Zm0-2.167v-1.912q0-.448.026-.9h-.026c-.176.335-.317.582-.476.846l-1.4,1.947v.018Z"/><path class="m" d="M1317.688,1542.9c0,1.947-.722,3.022-1.991,3.022-1.119,0-1.876-1.048-1.894-2.942,0-1.921.828-2.978,1.991-2.978C1317,1540,1317.688,1541.072,1317.688,1542.9Zm-3.11.088c0,1.489.458,2.335,1.163,2.335.793,0,1.172-.925,1.172-2.387,0-1.41-.361-2.335-1.163-2.335C1315.072,1540.6,1314.578,1541.425,1314.578,1542.984Z"/><path class="m" d="M1312.781,1500.585H1310.6l-.221,1.472a3.005,3.005,0,0,1,.467-.036,2.419,2.419,0,0,1,1.234.309,1.632,1.632,0,0,1,.819,1.471,1.987,1.987,0,0,1-2.132,1.956,2.805,2.805,0,0,1-1.427-.352l.194-.591a2.563,2.563,0,0,0,1.224.318,1.264,1.264,0,0,0,1.357-1.243c-.009-.74-.5-1.268-1.647-1.268a6,6,0,0,0-.793.061l.37-2.749h2.74Z"/><path class="m" d="M1317.688,1502.735c0,1.947-.722,3.022-1.991,3.022-1.119,0-1.876-1.048-1.894-2.943,0-1.92.828-2.978,1.991-2.978C1317,1499.836,1317.688,1500.911,1317.688,1502.735Zm-3.11.088c0,1.489.458,2.335,1.163,2.335.793,0,1.172-.925,1.172-2.388,0-1.409-.361-2.334-1.163-2.334C1315.072,1500.436,1314.578,1501.264,1314.578,1502.823Z"/><path class="m" d="M1312.631,1459.416a2.79,2.79,0,0,0-.581.035,2.329,2.329,0,0,0-1.992,2.036h.027a1.745,1.745,0,0,1,3.11,1.189,1.915,1.915,0,0,1-1.9,2.018c-1.225,0-2.027-.952-2.027-2.441a3.6,3.6,0,0,1,.97-2.581,3.113,3.113,0,0,1,1.832-.846,3.751,3.751,0,0,1,.564-.044Zm-.22,3.3a1.164,1.164,0,0,0-1.181-1.313,1.275,1.275,0,0,0-1.11.705.659.659,0,0,0-.088.344c.017.943.449,1.639,1.26,1.639C1311.961,1464.095,1312.411,1463.54,1312.411,1462.72Z"/><path class="m" d="M1317.688,1461.672c0,1.947-.722,3.022-1.991,3.022-1.119,0-1.876-1.049-1.894-2.943,0-1.921.828-2.978,1.991-2.978C1317,1458.773,1317.688,1459.848,1317.688,1461.672Zm-3.11.088c0,1.489.458,2.335,1.163,2.335.793,0,1.172-.925,1.172-2.388,0-1.41-.361-2.335-1.163-2.335C1315.072,1459.372,1314.578,1460.2,1314.578,1461.76Z"/><rect class="l" width="12.179" height="0.902" transform="translate(1325.74 1620.128)"/><rect class="l" width="12.179" height="0.902" transform="translate(1325.74 1580.54)"/><rect class="l" width="12.179" height="0.902" transform="translate(1325.74 1540.952)"/><rect class="l" width="12.179" height="0.902" transform="translate(1325.74 1501.364)"/><rect class="l" width="12.179" height="0.902" transform="translate(1325.74 1461.775)"/><path class="m" d="M1360.153,1675.044h-.018l-.995.538-.15-.59,1.251-.67h.661v5.727h-.749Z"/><path class="m" d="M1411.547,1680.049v-.476l.608-.59c1.463-1.392,2.124-2.132,2.132-3a1.022,1.022,0,0,0-1.136-1.119,1.951,1.951,0,0,0-1.216.485l-.247-.546a2.512,2.512,0,0,1,1.621-.582,1.612,1.612,0,0,1,1.754,1.665c0,1.058-.767,1.912-1.974,3.075l-.458.423v.018h2.573v.643Z"/><path class="m" d="M1464.81,1679.159a2.59,2.59,0,0,0,1.269.361c.995,0,1.3-.634,1.3-1.11-.009-.8-.731-1.145-1.48-1.145h-.432v-.582h.432c.564,0,1.277-.291,1.277-.969,0-.458-.291-.863-1-.863a2.108,2.108,0,0,0-1.146.378l-.2-.563a2.714,2.714,0,0,1,1.5-.441c1.127,0,1.638.67,1.638,1.366a1.422,1.422,0,0,1-1.057,1.348v.017a1.492,1.492,0,0,1,1.278,1.472c0,.916-.714,1.718-2.088,1.718a2.913,2.913,0,0,1-1.49-.388Z"/><path class="m" d="M1520.1,1680.049v-1.56h-2.661v-.511l2.556-3.656h.837v3.56h.8v.607h-.8v1.56Zm0-2.167v-1.912q0-.45.027-.9h-.027c-.176.335-.317.581-.476.846l-1.4,1.947v.018Z"/><path class="m" d="M1574.2,1674.974h-2.185l-.22,1.471a3.149,3.149,0,0,1,.467-.035,2.423,2.423,0,0,1,1.233.308,1.634,1.634,0,0,1,.82,1.472,1.987,1.987,0,0,1-2.133,1.956,2.8,2.8,0,0,1-1.427-.353l.194-.59a2.565,2.565,0,0,0,1.224.317,1.264,1.264,0,0,0,1.357-1.242c-.008-.74-.5-1.269-1.647-1.269a5.8,5.8,0,0,0-.793.062l.37-2.749h2.74Z"/><rect class="l" width="0.902" height="12.179" transform="translate(1359.696 1654.078)"/><rect class="l" width="0.902" height="12.179" transform="translate(1412.645 1654.078)"/><rect class="l" width="0.902" height="12.179" transform="translate(1465.593 1654.078)"/><rect class="l" width="0.902" height="12.179" transform="translate(1518.916 1654.078)"/><rect class="l" width="0.902" height="12.179" transform="translate(1571.435 1654.078)"/></g></svg>